<?xml version="1.0" encoding="UTF-8" standalone="no"?>
<svg
   xmlns:dc="http://purl.org/dc/elements/1.1/"
   xmlns:cc="http://creativecommons.org/ns#"
   xmlns:rdf="http://www.w3.org/1999/02/22-rdf-syntax-ns#"
   xmlns:svg="http://www.w3.org/2000/svg"
   xmlns="http://www.w3.org/2000/svg"
   xmlns:sodipodi="http://sodipodi.sourceforge.net/DTD/sodipodi-0.dtd"
   xmlns:inkscape="http://www.inkscape.org/namespaces/inkscape"
   style="enable-background:new"
   inkscape:export-ydpi="96"
   inkscape:export-xdpi="96"
   inkscape:export-filename="/home/martin/Documents/code/cpp/squeezer/skins/Default/test.png"
   sodipodi:docname="button_curve_linear_on.svg"
   inkscape:version="1.0 (1.0+r73+1)"
   version="1.1"
   id="svg2"
   height="213"
   width="773">
  <sodipodi:namedview
     inkscape:document-rotation="0"
     inkscape:snap-global="false"
     inkscape:bbox-nodes="false"
     inkscape:object-nodes="true"
     inkscape:bbox-paths="true"
     inkscape:snap-bbox="true"
     objecttolerance="20"
     gridtolerance="10000"
     inkscape:snap-grids="true"
     height="188px"
     inkscape:guide-bbox="true"
     showguides="true"
     inkscape:showpageshadow="true"
     borderlayer="false"
     inkscape:window-maximized="1"
     inkscape:window-y="25"
     inkscape:window-x="0"
     inkscape:window-height="1028"
     inkscape:window-width="1920"
     showgrid="false"
     inkscape:current-layer="layer1"
     inkscape:document-units="px"
     inkscape:cy="239.00013"
     inkscape:cx="567.0794"
     inkscape:zoom="1.20089"
     inkscape:pageshadow="2"
     inkscape:pageopacity="0.0"
     borderopacity="1.0"
     bordercolor="#666666"
     pagecolor="#ffffff"
     id="base">
    <inkscape:grid
       dotted="true"
       snapvisiblegridlinesonly="false"
       id="grid5244"
       type="xygrid" />
  </sodipodi:namedview>
  <defs
     id="defs4" />
  <metadata
     id="metadata7">
    <rdf:RDF>
      <cc:Work
         rdf:about="">
        <dc:format>image/svg+xml</dc:format>
        <dc:type
           rdf:resource="http://purl.org/dc/dcmitype/StillImage" />
        <dc:title />
        <cc:license
           rdf:resource="http://creativecommons.org/licenses/by-sa/4.0/" />
      </cc:Work>
      <cc:License
         rdf:about="http://creativecommons.org/licenses/by-sa/4.0/">
        <cc:permits
           rdf:resource="http://creativecommons.org/ns#Reproduction" />
        <cc:permits
           rdf:resource="http://creativecommons.org/ns#Distribution" />
        <cc:requires
           rdf:resource="http://creativecommons.org/ns#Notice" />
        <cc:requires
           rdf:resource="http://creativecommons.org/ns#Attribution" />
        <cc:permits
           rdf:resource="http://creativecommons.org/ns#DerivativeWorks" />
        <cc:requires
           rdf:resource="http://creativecommons.org/ns#ShareAlike" />
      </cc:License>
    </rdf:RDF>
  </metadata>
  <g
     transform="translate(0,-839.36218)"
     id="layer1"
     inkscape:groupmode="layer"
     inkscape:label="Background"
     style="display:inline">
    <g
       style="stroke-width:1"
       id="g893"
       transform="matrix(0.99999884,0,0,1,345.60064,-116.89722)">
      <path
         id="rect8658"
         style="color:#000000;clip-rule:nonzero;display:inline;overflow:visible;visibility:visible;opacity:1;isolation:auto;mix-blend-mode:normal;color-interpolation:sRGB;color-interpolation-filters:linearRGB;solid-color:#000000;solid-opacity:1;fill:#ff6600;fill-opacity:1;fill-rule:nonzero;stroke:none;stroke-width:2;stroke-linecap:round;stroke-linejoin:round;stroke-miterlimit:4;stroke-dasharray:none;stroke-dashoffset:0;stroke-opacity:1;marker:none;color-rendering:auto;image-rendering:auto;shape-rendering:auto;text-rendering:auto;enable-background:accumulate"
         d="m 11.399362,1031.2594 h 40 c 5.54,0 10,4.46 10,10 0,5.54 -4.46,10 -10,10 h -40 c -5.5399999,0 -9.9999999,-4.46 -9.9999999,-10 0,-5.54 4.46,-10 9.9999999,-10 z" />
      <path
         id="rect7728"
         style="color:#000000;clip-rule:nonzero;display:inline;overflow:visible;visibility:visible;opacity:1;isolation:auto;mix-blend-mode:normal;color-interpolation:sRGB;color-interpolation-filters:linearRGB;solid-color:#000000;solid-opacity:1;fill:none;fill-opacity:1;fill-rule:nonzero;stroke:#000000;stroke-width:1;stroke-linecap:round;stroke-linejoin:round;stroke-miterlimit:4;stroke-dasharray:none;stroke-dashoffset:0;stroke-opacity:1;marker:none;color-rendering:auto;image-rendering:auto;shape-rendering:auto;text-rendering:auto;enable-background:accumulate"
         d="m 11.399362,1031.7594 h 40 c 5.263,0 9.5,4.237 9.5,9.5 0,5.263 -4.237,9.5 -9.5,9.5 h -40 c -5.2629999,0 -9.4999999,-4.237 -9.4999999,-9.5 0,-5.263 4.237,-9.5 9.4999999,-9.5 z" />
      <path
         id="use6168"
         style="color:#000000;clip-rule:nonzero;display:inline;overflow:visible;visibility:visible;isolation:auto;mix-blend-mode:normal;color-interpolation:sRGB;color-interpolation-filters:linearRGB;solid-color:#000000;solid-opacity:1;fill:none;fill-opacity:1;fill-rule:nonzero;stroke:#000000;stroke-width:1;stroke-linecap:round;stroke-linejoin:round;stroke-miterlimit:4;stroke-dasharray:none;stroke-dashoffset:0;stroke-opacity:1;marker:none;color-rendering:auto;image-rendering:auto;shape-rendering:auto;text-rendering:auto;enable-background:accumulate"
         d="m 11.399362,1031.7594 h 40 c 5.263,0 9.5,4.237 9.5,9.5 0,5.263 -4.237,9.5 -9.5,9.5 h -40 c -5.2629999,0 -9.4999999,-4.237 -9.4999999,-9.5 0,-5.263 4.237,-9.5 9.4999999,-9.5 z" />
      <g
         aria-label="Linear"
         id="text6035"
         style="font-style:normal;font-variant:normal;font-weight:600;font-stretch:normal;line-height:0%;font-family:sans-serif;-inkscape-font-specification:'Avenir Next LT Pro Semi-Bold';text-align:center;letter-spacing:0px;word-spacing:0px;text-anchor:middle;display:inline;fill:#000000;fill-opacity:1;stroke:none;stroke-width:1;enable-background:new"
         transform="translate(-798.60064,203.89721)">
        <path
           d="m 814.81741,841.21765 h 4.697 v -1.232 h -3.311 v -6.556 h -1.386 z"
           style="font-style:normal;font-variant:normal;font-weight:600;font-stretch:normal;font-size:11px;line-height:1.25;font-family:'Avenir Next LT Pro';-inkscape-font-specification:'Avenir Next LT Pro Semi-Bold';fill:#000000;stroke-width:1"
           id="path2258" />
        <path
           d="m 820.40232,841.21765 h 1.32 v -5.28 h -1.32 z m -0.187,-7.073 c 0,0.418 0.352,0.792 0.836,0.792 0.484,0 0.858,-0.341 0.858,-0.792 0,-0.451 -0.374,-0.792 -0.858,-0.792 -0.484,0 -0.836,0.374 -0.836,0.792 z"
           style="font-style:normal;font-variant:normal;font-weight:600;font-stretch:normal;font-size:11px;line-height:1.25;font-family:'Avenir Next LT Pro';-inkscape-font-specification:'Avenir Next LT Pro Semi-Bold';fill:#000000;stroke-width:1"
           id="path2260" />
        <path
           d="m 823.32368,841.21765 h 1.32 v -2.904 c 0,-0.704 0.396,-1.43 1.232,-1.43 0.847,0 0.99,0.781 0.99,1.408 v 2.926 h 1.32 v -3.3 c 0,-1.078 -0.572,-2.134 -1.947,-2.134 -0.781,0 -1.408,0.473 -1.639,1.001 h -0.022 v -0.847 h -1.254 z"
           style="font-style:normal;font-variant:normal;font-weight:600;font-stretch:normal;font-size:11px;line-height:1.25;font-family:'Avenir Next LT Pro';-inkscape-font-specification:'Avenir Next LT Pro Semi-Bold';fill:#000000;stroke-width:1"
           id="path2262" />
        <path
           d="m 830.73802,838.04965 c 0.055,-0.737 0.682,-1.276 1.463,-1.276 0.858,0 1.243,0.594 1.243,1.276 z m 4.026,0.594 c 0,-1.903 -1.078,-2.86 -2.552,-2.86 -1.595,0 -2.794,1.122 -2.794,2.827 0,1.716 1.21,2.761 2.838,2.761 1.001,0 1.749,-0.352 2.266,-1.056 l -0.88,-0.704 c -0.297,0.418 -0.737,0.682 -1.397,0.682 -0.77,0 -1.452,-0.55 -1.507,-1.298 h 4.015 c 0.011,-0.121 0.011,-0.231 0.011,-0.352 z"
           style="font-style:normal;font-variant:normal;font-weight:600;font-stretch:normal;font-size:11px;line-height:1.25;font-family:'Avenir Next LT Pro';-inkscape-font-specification:'Avenir Next LT Pro Semi-Bold';fill:#000000;stroke-width:1"
           id="path2264" />
        <path
           d="m 839.25597,841.21765 h 1.232 v -3.212 c 0,-1.056 -0.462,-2.222 -2.354,-2.222 -0.803,0 -1.639,0.286 -2.233,0.836 l 0.682,0.803 c 0.341,-0.341 0.88,-0.605 1.441,-0.605 0.66,0 1.21,0.319 1.21,0.968 v 0.132 c -1.65,0 -3.63,0.22 -3.63,1.793 0,1.232 1.133,1.639 1.98,1.639 0.748,0 1.375,-0.341 1.639,-0.803 h 0.033 z m -0.022,-2.222 c 0,0.836 -0.484,1.353 -1.386,1.353 -0.451,0 -0.924,-0.154 -0.924,-0.66 0,-0.781 1.177,-0.88 2.013,-0.88 h 0.297 z"
           style="font-style:normal;font-variant:normal;font-weight:600;font-stretch:normal;font-size:11px;line-height:1.25;font-family:'Avenir Next LT Pro';-inkscape-font-specification:'Avenir Next LT Pro Semi-Bold';fill:#000000;stroke-width:1"
           id="path2266" />
        <path
           d="m 842.03657,841.21765 h 1.32 v -2.827 c 0,-0.385 0.231,-1.419 1.419,-1.419 0.121,0 0.231,0.011 0.407,0.055 v -1.21 c -0.088,-0.022 -0.22,-0.033 -0.319,-0.033 -0.693,0 -1.254,0.429 -1.54,1.034 h -0.022 v -0.88 h -1.265 z"
           style="font-style:normal;font-variant:normal;font-weight:600;font-stretch:normal;font-size:11px;line-height:1.25;font-family:'Avenir Next LT Pro';-inkscape-font-specification:'Avenir Next LT Pro Semi-Bold';fill:#000000;stroke-width:1"
           id="path2268" />
      </g>
    </g>
    <g
       transform="translate(50.015625)"
       id="g3769" />
    <g
       id="g4692"
       style="display:inline"
       transform="translate(50,-20)" />
  </g>
</svg>
