<?xml version="1.0" encoding="UTF-8" standalone="no"?>
<svg
   xmlns:dc="http://purl.org/dc/elements/1.1/"
   xmlns:cc="http://creativecommons.org/ns#"
   xmlns:rdf="http://www.w3.org/1999/02/22-rdf-syntax-ns#"
   xmlns:svg="http://www.w3.org/2000/svg"
   xmlns="http://www.w3.org/2000/svg"
   xmlns:sodipodi="http://sodipodi.sourceforge.net/DTD/sodipodi-0.dtd"
   xmlns:inkscape="http://www.inkscape.org/namespaces/inkscape"
   width="773"
   height="213"
   id="svg2"
   version="1.1"
   inkscape:version="1.0 (1.0+r73+1)"
   sodipodi:docname="button_curve_linear_over.svg"
   inkscape:export-filename="/home/martin/Documents/code/cpp/squeezer/skins/Default/test.png"
   inkscape:export-xdpi="96"
   inkscape:export-ydpi="96"
   style="enable-background:new">
  <sodipodi:namedview
     id="base"
     pagecolor="#ffffff"
     bordercolor="#666666"
     borderopacity="1.0"
     inkscape:pageopacity="0.0"
     inkscape:pageshadow="2"
     inkscape:zoom="1.20089"
     inkscape:cx="567.0794"
     inkscape:cy="239.00013"
     inkscape:document-units="px"
     inkscape:current-layer="layer6"
     showgrid="false"
     inkscape:window-width="1920"
     inkscape:window-height="1028"
     inkscape:window-x="0"
     inkscape:window-y="25"
     inkscape:window-maximized="1"
     borderlayer="false"
     inkscape:showpageshadow="true"
     showguides="true"
     inkscape:guide-bbox="true"
     height="188px"
     inkscape:snap-grids="true"
     gridtolerance="10000"
     objecttolerance="20"
     inkscape:snap-bbox="true"
     inkscape:bbox-paths="true"
     inkscape:object-nodes="true"
     inkscape:bbox-nodes="false"
     inkscape:snap-global="false"
     inkscape:document-rotation="0">
    <inkscape:grid
       type="xygrid"
       id="grid5244"
       snapvisiblegridlinesonly="false" />
  </sodipodi:namedview>
  <defs
     id="defs4">
    <inkscape:path-effect
       fuse_tolerance="0"
       vertical_pattern="false"
       prop_units="false"
       tang_offset="0"
       normal_offset="0"
       spacing="0"
       scale_y_rel="false"
       prop_scale="1"
       copytype="single_stretched"
       pattern="m 10.802227,-0.0165518 h 0.999999"
       is_visible="true"
       id="path-effect10937"
       effect="skeletal" />
    <inkscape:path-effect
       effect="skeletal"
       id="path-effect10893-3"
       is_visible="true"
       pattern="m -13.879472,-0.0165518 h 1"
       copytype="single_stretched"
       prop_scale="1"
       scale_y_rel="false"
       spacing="0"
       normal_offset="0"
       tang_offset="0"
       prop_units="false"
       vertical_pattern="false"
       fuse_tolerance="0" />
  </defs>
  <metadata
     id="metadata7">
    <rdf:RDF>
      <cc:Work
         rdf:about="">
        <dc:format>image/svg+xml</dc:format>
        <dc:type
           rdf:resource="http://purl.org/dc/dcmitype/StillImage" />
        <dc:title />
        <cc:license
           rdf:resource="http://creativecommons.org/licenses/by-sa/4.0/" />
      </cc:Work>
      <cc:License
         rdf:about="http://creativecommons.org/licenses/by-sa/4.0/">
        <cc:permits
           rdf:resource="http://creativecommons.org/ns#Reproduction" />
        <cc:permits
           rdf:resource="http://creativecommons.org/ns#Distribution" />
        <cc:requires
           rdf:resource="http://creativecommons.org/ns#Notice" />
        <cc:requires
           rdf:resource="http://creativecommons.org/ns#Attribution" />
        <cc:permits
           rdf:resource="http://creativecommons.org/ns#DerivativeWorks" />
        <cc:requires
           rdf:resource="http://creativecommons.org/ns#ShareAlike" />
      </cc:License>
    </rdf:RDF>
  </metadata>
  <g
     inkscape:groupmode="layer"
     id="layer6"
     inkscape:label="Widgets"
     style="display:inline">
    <g
       transform="translate(-523,86.999997)"
       id="g4492">
      <rect
         rx="9"
         ry="9"
         y="828.36218"
         x="871"
         height="18"
         width="58"
         id="rect16477"
         style="color:#000000;clip-rule:nonzero;display:inline;overflow:visible;visibility:visible;opacity:1;isolation:auto;mix-blend-mode:normal;color-interpolation:sRGB;color-interpolation-filters:linearRGB;solid-color:#000000;solid-opacity:1;fill:#a04000;fill-opacity:1;fill-rule:nonzero;stroke:#a04000;stroke-width:2;stroke-linecap:round;stroke-linejoin:round;stroke-miterlimit:4;stroke-dasharray:none;stroke-dashoffset:0;stroke-opacity:1;marker:none;color-rendering:auto;image-rendering:auto;shape-rendering:auto;text-rendering:auto;enable-background:accumulate"
         transform="translate(0,-839.36218)" />
      <rect
         style="color:#000000;clip-rule:nonzero;display:inline;overflow:visible;visibility:visible;isolation:auto;mix-blend-mode:normal;color-interpolation:sRGB;color-interpolation-filters:linearRGB;solid-color:#000000;solid-opacity:1;fill:none;fill-opacity:1;fill-rule:nonzero;stroke:#000000;stroke-width:1;stroke-linecap:round;stroke-linejoin:round;stroke-miterlimit:4;stroke-dasharray:none;stroke-dashoffset:0;stroke-opacity:1;marker:none;color-rendering:auto;image-rendering:auto;shape-rendering:auto;text-rendering:auto;enable-background:accumulate"
         id="use6186"
         width="59"
         height="19"
         x="870.5"
         y="-11.499997"
         ry="9.5"
         rx="9.5"
         inkscape:tile-x0="690"
         inkscape:tile-y0="-11.999997" />
      <g
         style="font-style:normal;font-variant:normal;font-weight:600;font-stretch:normal;line-height:0%;font-family:sans-serif;-inkscape-font-specification:'Avenir Next LT Pro Semi-Bold';text-align:center;letter-spacing:0px;word-spacing:0px;text-anchor:middle;display:inline;fill:#000000;fill-opacity:1;stroke:none;enable-background:new"
         id="text6085"
         aria-label="Linear">
        <path
           id="path3967"
           style="font-style:normal;font-variant:normal;font-weight:600;font-stretch:normal;font-size:11px;line-height:1.25;font-family:'Avenir Next LT Pro';-inkscape-font-specification:'Avenir Next LT Pro Semi-Bold';fill:#000000"
           d="m 884.81741,1.8554714 h 4.697 V 0.62347137 h -3.311 V -5.9325286 h -1.386 z" />
        <path
           id="path3969"
           style="font-style:normal;font-variant:normal;font-weight:600;font-stretch:normal;font-size:11px;line-height:1.25;font-family:'Avenir Next LT Pro';-inkscape-font-specification:'Avenir Next LT Pro Semi-Bold';fill:#000000"
           d="m 890.40232,1.8554714 h 1.32 v -5.28 h -1.32 z m -0.187,-7.073 c 0,0.418 0.352,0.792 0.836,0.792 0.484,0 0.858,-0.341 0.858,-0.792 0,-0.451 -0.374,-0.792 -0.858,-0.792 -0.484,0 -0.836,0.374 -0.836,0.792 z" />
        <path
           id="path3971"
           style="font-style:normal;font-variant:normal;font-weight:600;font-stretch:normal;font-size:11px;line-height:1.25;font-family:'Avenir Next LT Pro';-inkscape-font-specification:'Avenir Next LT Pro Semi-Bold';fill:#000000"
           d="m 893.32368,1.8554714 h 1.32 v -2.904 c 0,-0.704 0.396,-1.43 1.232,-1.43 0.847,0 0.99,0.781 0.99,1.408 v 2.926 h 1.32 v -3.3 c 0,-1.078 -0.572,-2.134 -1.947,-2.134 -0.781,0 -1.408,0.473 -1.639,1.001 h -0.022 v -0.847 h -1.254 z" />
        <path
           id="path3973"
           style="font-style:normal;font-variant:normal;font-weight:600;font-stretch:normal;font-size:11px;line-height:1.25;font-family:'Avenir Next LT Pro';-inkscape-font-specification:'Avenir Next LT Pro Semi-Bold';fill:#000000"
           d="m 900.73802,-1.3125286 c 0.055,-0.737 0.682,-1.276 1.463,-1.276 0.858,0 1.243,0.594 1.243,1.276 z m 4.026,0.59399997 c 0,-1.90299997 -1.078,-2.85999997 -2.552,-2.85999997 -1.595,0 -2.794,1.122 -2.794,2.82699997 0,1.716 1.21,2.76100003 2.838,2.76100003 1.001,0 1.749,-0.352 2.266,-1.05600003 l -0.88,-0.704 c -0.297,0.418 -0.737,0.682 -1.397,0.682 -0.77,0 -1.452,-0.55 -1.507,-1.298 h 4.015 c 0.011,-0.121 0.011,-0.231 0.011,-0.352 z" />
        <path
           id="path3975"
           style="font-style:normal;font-variant:normal;font-weight:600;font-stretch:normal;font-size:11px;line-height:1.25;font-family:'Avenir Next LT Pro';-inkscape-font-specification:'Avenir Next LT Pro Semi-Bold';fill:#000000"
           d="m 909.25597,1.8554714 h 1.232 v -3.212 c 0,-1.056 -0.462,-2.222 -2.354,-2.222 -0.803,0 -1.639,0.286 -2.233,0.836 l 0.682,0.803 c 0.341,-0.341 0.88,-0.605 1.441,-0.605 0.66,0 1.21,0.319 1.21,0.968 v 0.132 c -1.65,0 -3.63,0.22 -3.63,1.79299997 0,1.23200003 1.133,1.63900003 1.98,1.63900003 0.748,0 1.375,-0.341 1.639,-0.803 h 0.033 z m -0.022,-2.22200003 c 0,0.836 -0.484,1.353 -1.386,1.353 -0.451,0 -0.924,-0.154 -0.924,-0.66 0,-0.781 1.177,-0.88 2.013,-0.88 h 0.297 z" />
        <path
           id="path3977"
           style="font-style:normal;font-variant:normal;font-weight:600;font-stretch:normal;font-size:11px;line-height:1.25;font-family:'Avenir Next LT Pro';-inkscape-font-specification:'Avenir Next LT Pro Semi-Bold';fill:#000000"
           d="m 912.03657,1.8554714 h 1.32 v -2.82700003 c 0,-0.38499997 0.231,-1.41899997 1.419,-1.41899997 0.121,0 0.231,0.011 0.407,0.055 v -1.21 c -0.088,-0.022 -0.22,-0.033 -0.319,-0.033 -0.693,0 -1.254,0.429 -1.54,1.034 h -0.022 v -0.88 h -1.265 z" />
      </g>
    </g>
  </g>
</svg>
