<?xml version="1.0" encoding="UTF-8" standalone="no"?>
<svg
   xmlns:dc="http://purl.org/dc/elements/1.1/"
   xmlns:cc="http://creativecommons.org/ns#"
   xmlns:rdf="http://www.w3.org/1999/02/22-rdf-syntax-ns#"
   xmlns:svg="http://www.w3.org/2000/svg"
   xmlns="http://www.w3.org/2000/svg"
   xmlns:sodipodi="http://sodipodi.sourceforge.net/DTD/sodipodi-0.dtd"
   xmlns:inkscape="http://www.inkscape.org/namespaces/inkscape"
   inkscape:export-ydpi="96"
   inkscape:export-xdpi="96"
   inkscape:export-filename="output/button_gpl_normal.png"
   version="1.1"
   inkscape:output_extension="org.inkscape.output.svg.inkscape"
   sodipodi:docname="button_gpl_normal.svg"
   inkscape:version="1.0 (1.0+r73+1)"
   sodipodi:version="0.32"
   id="svg1341"
   height="33"
   width="64">
  <defs
     id="defs1343">
    <inkscape:perspective
       id="perspective79"
       inkscape:persp3d-origin="372.04724 : 3.78739 : 1"
       inkscape:vp_z="744.09448 : 179.18109 : 1"
       inkscape:vp_y="0 : 1000 : 0"
       inkscape:vp_x="0 : 179.18109 : 1"
       sodipodi:type="inkscape:persp3d" />
  </defs>
  <sodipodi:namedview
     inkscape:document-rotation="0"
     inkscape:window-maximized="1"
     showgrid="false"
     inkscape:window-y="25"
     inkscape:window-x="0"
     inkscape:window-height="1030"
     inkscape:window-width="1920"
     inkscape:current-layer="g2486"
     inkscape:document-units="px"
     inkscape:cy="16.432433"
     inkscape:cx="32.000001"
     inkscape:zoom="13.492187"
     inkscape:pageshadow="2"
     inkscape:pageopacity="0"
     borderopacity="1.0"
     bordercolor="#666666"
     pagecolor="#ffffff"
     id="base" />
  <metadata
     id="metadata1346">
    <rdf:RDF>
      <cc:Work
         rdf:about="">
        <dc:format>image/svg+xml</dc:format>
        <dc:type
           rdf:resource="http://purl.org/dc/dcmitype/StillImage" />
        <dc:title></dc:title>
      </cc:Work>
    </rdf:RDF>
  </metadata>
  <g
     transform="translate(0,-672.36218)"
     id="layer1"
     inkscape:groupmode="layer"
     inkscape:label="Layer 1">
    <g
       transform="translate(-10.576504,677.33925)"
       id="g2486">
      <path
         style="fill:#bd0000;fill-opacity:1;fill-rule:evenodd;stroke:none;stroke-width:0.0864865"
         id="path2577"
         d="m 41.96901,14.800226 c 0,0 -0.0015,0 -0.0015,0 -0.138629,0 -0.261037,0.04572 -0.37607,0.138631 -0.08554,0.06784 -0.144529,0.159276 -0.191723,0.261036 0,0 0.0059,0 0.0059,0 0.04719,-0.10176 0.106184,-0.193196 0.190248,-0.261036 0.115033,-0.09291 0.23744,-0.137156 0.37312,-0.138631 z" />
      <path
         id="path2579"
         d="m 18.919419,-2.9679559 c 2e-6,0 -5.12949,22.3798859 -5.12949,22.3798859 0.0015,0 0.0017,0 0.0046,0 0,0 23.730234,0 23.730234,0 10e-7,0 12.342118,0 12.342118,0 -1.470363,-0.128305 -2.631202,-0.644482 -3.322877,-1.585394 -0.128305,-0.174027 -0.234308,-0.361508 -0.327219,-0.557655 -0.05899,-0.144527 -0.114481,-0.290348 -0.170523,-0.437826 -0.14748,-0.468983 -0.206285,-0.989398 -0.17974,-1.543917 0.07374,-1.545578 0.798967,-3.384045 2.055485,-5.3092313 1.334681,-2.0459728 3.269048,-4.1903474 5.664101,-6.1802762 0.53682,-0.4456813 1.091894,-0.8857937 1.672961,-1.3134824 0.718219,-0.5284143 1.441972,-1.0150582 2.166093,-1.4701778 2.667887,-1.6796342 5.329139,-2.8549294 7.687323,-3.4519197 -2.253472,0.7351793 -4.785129,1.98325459 -7.286367,3.6823561 -0.08996,0.060761 -0.178818,0.1229967 -0.267305,0.1843476 -1.387774,0.9615612 -2.645029,1.9827772 -3.742269,3.014094 -3.530641,3.3197467 -5.396797,6.7596837 -4.548795,8.7749787 0.06047,0.138629 0.132546,0.270993 0.21661,0.39635 0.911416,1.340581 3.170237,1.572306 6.032797,0.85261 0.194672,-0.04867 0.389343,-0.103787 0.589914,-0.161304 0.914368,-0.263989 1.885146,-0.620517 2.885051,-1.060003 0.240389,-0.106185 0.483362,-0.215319 0.728176,-0.331827 0.02507,-0.0118 0.04867,-0.0236 0.07374,-0.03687 3.156042,-1.56814 5.581514,-3.372504 6.106538,-4.4566199 0.115034,-0.2358158 0.142685,-0.4368692 0.06452,-0.5945229 -0.374593,-0.7595139 -2.995844,-0.2464 -6.171059,1.129133 -0.255138,0.1106076 -0.513225,0.2244256 -0.774262,0.3456528 0.212369,-0.1971771 0.433403,-0.3950945 0.659044,-0.5899148 0.359849,-0.3100005 0.732416,-0.6131417 1.129133,-0.9125224 0.620886,-0.4701639 1.248592,-0.8951966 1.866528,-1.2720035 2.893529,-2.182977 4.356333,-4.247976 4.051053,-5.0142731 -0.05752,-0.1443832 -0.179924,-0.2437094 -0.368697,-0.3041756 -0.60319,-0.1918677 -1.704115,0.037128 -3.041746,0.585306 -1.103139,0.4524662 -2.370166,1.1235287 -3.654705,1.958701 0,0 -0.175131,0.1152173 -0.175131,0.1152173 2e-6,0 -0.03226,0.018434 -0.03226,0.018434 2e-6,1.7e-6 -0.617566,0.4101751 -0.617566,0.4101751 -2e-6,-9e-7 0.35487,-0.6498275 0.35487,-0.6498275 0.5265,-0.9637743 1.384087,-1.9693553 2.451832,-2.90348463 0.783112,-0.6829743 1.677754,-1.32649692 2.64079,-1.88957067 0.364273,-0.2132523 0.727991,-0.4113176 1.092262,-0.589914 0.373122,-0.1822867 0.746426,-0.3442932 1.1107,-0.4885267 1.058319,-0.4185341 2.068567,-0.6728476 2.949571,-0.7420022 -0.08023,0 -2.474875,0 -2.474875,0 10e-7,0 -8.341759,0 -8.341759,0 1e-6,0 -36.782094,0 -36.782094,0 0,0 -2.917312,0 -2.917312,0 z m 26.463198,0.032268 c -0.144527,2.20583449 0.283159,5.4367233 1.253569,9.0238447 0.172548,0.6382885 0.360399,1.2878574 0.56687,1.9448753 0.128308,0.4057116 0.26067,0.8050863 0.396349,1.1982634 -0.07964,0.1170993 -0.159831,0.2334591 -0.235044,0.3502617 C 46.153563,11.437132 45.445848,13.190728 45.2674,14.715657 44.755647,13.001955 44.370361,11.124885 44.152092,9.1345129 44.090152,8.5642124 44.041667,8.0002928 44.009222,7.4431183 43.770305,3.3958627 44.298648,-0.27296421 45.382617,-2.9356879 Z m -24.163452,2.87122176 c 0.02762,-6.4865e-4 0.05485,0 0.08296,0 0,-1.73e-6 5.452101,0 5.452101,0 0.466033,-1.73e-6 0.826434,0.08734357 1.083046,0.26269579 0.255137,0.17638574 0.350816,0.40453451 0.290348,0.68208868 2e-6,1.73e-6 -0.649828,2.93574587 -0.649828,2.93574587 0,2.6e-6 -1.92183,0 -1.92183,0 2e-6,2.6e-6 0.631393,-2.85739776 0.631393,-2.85739776 -1e-6,0 -4.81149,0 -4.81149,0 -1e-6,0 -1.737483,7.85323706 -1.737483,7.85323706 2e-6,0 -0.626784,2.8435725 -0.626784,2.8435725 0,3e-6 4.806882,0 4.806882,0 0,3e-6 0.0046,-0.01844 0.0046,-0.01844 0,2e-6 0.963219,-4.3506199 0.963219,-4.3506199 0,-1.8e-6 -2.258266,0 -2.258266,0 0,-1.8e-6 0.216609,-0.9816545 0.216609,-0.9816545 -10e-7,-1.8e-6 4.180097,0 4.180097,0 0,-1.8e-6 -1.198264,5.4290584 -1.198264,5.4290584 -0.01622,0.07728 -0.04461,0.147293 -0.08296,0.216608 -0.09881,0.179924 -0.271176,0.33404 -0.511566,0.460871 -0.3333,0.175501 -0.732231,0.262696 -1.198264,0.262696 0,2e-6 -5.447492,0 -5.447492,0 -0.466034,2e-6 -0.826434,-0.0872 -1.083046,-0.262696 -0.255136,-0.175498 -0.35229,-0.39963 -0.290348,-0.677479 1e-6,-2e-6 2.401136,-10.85350667 2.401136,-10.85350667 0.06194,-0.27755331 0.255139,-0.50570467 0.589915,-0.68208868 0.0118,-0.00634 0.02507,-0.007779 0.03687,-0.0138257 0.305558,-0.15305514 0.664162,-0.23908584 1.078438,-0.24887006 z m 8.544544,0 c -2e-6,-1.73e-6 6.862364,0 6.862364,0 0.460134,-1.73e-6 0.821824,0.08734357 1.078437,0.26269579 0.25809,0.17638574 0.3569,0.40453451 0.294958,0.68208868 10e-7,1.73e-6 -1.281221,5.78853647 -1.281221,5.78853647 -0.06046,0.2757829 -0.258272,0.5008 -0.594523,0.6774798 -0.33625,0.1772679 -0.732047,0.2673047 -1.193655,0.2673047 -2e-6,0 -4.986621,0 -4.986621,0 0,0 -0.96322,4.3460107 -0.96322,4.3460107 0,2e-6 -0.156696,0.71435 -0.156696,0.71435 1e-6,2e-6 -1.880353,0 -1.880353,0 0,2e-6 0.14287,-0.645218 0.14287,-0.645218 0,1e-6 2.67766,-12.09324814 2.67766,-12.09324814 z m 9.48011,0 c -1e-6,-1.73e-6 1.880353,0 1.880353,0 10e-7,-1.73e-6 -2.129223,9.61837094 -2.129223,9.61837094 1e-6,1.8e-6 -0.465479,2.1015712 -0.465479,2.1015712 0,3e-6 4.498098,0 4.498098,0 0.04719,0.344955 0.102313,0.683747 0.161304,1.018524 -1e-6,2e-6 -6.765583,0 -6.765583,0 2e-6,2e-6 0.534611,-2.414963 0.534611,-2.414963 10e-7,0 2.285919,-10.32350314 2.285919,-10.32350314 z m -7.825585,1.02313258 c 2e-6,0 -1.24896,5.63183936 -1.24896,5.63183936 0,-1.7e-6 4.687056,0 4.687056,0 -10e-7,-1.7e-6 1.24435,-5.63183936 1.24435,-5.63183936 2e-6,0 -4.682446,0 -4.682446,0 z M 27.477788,13.558872 c 0.01839,-6.05e-4 0.03678,0 0.05531,0 0.218269,2e-6 0.408884,0.03835 0.562262,0.110608 0.163701,0.07669 0.280762,0.190617 0.345653,0.341045 0.06342,0.146006 0.08001,0.311733 0.04609,0.493132 0,10e-7 -0.01383,0.06913 -0.01383,0.06913 1e-6,-3e-6 -0.539219,0 -0.539219,0 -1e-6,-3e-6 0.0046,-0.06452 0.0046,-0.06452 0.01394,-0.12674 -0.0018,-0.226403 -0.0507,-0.294956 -0.0064,-0.0086 -0.01561,-0.01995 -0.02304,-0.02765 -0.01217,-0.01242 -0.03044,-0.02662 -0.04609,-0.03687 -0.07545,-0.04752 -0.193473,-0.07374 -0.345654,-0.07374 -0.202045,10e-7 -0.353026,0.03521 -0.456261,0.106001 -0.100286,0.06932 -0.163701,0.146742 -0.184348,0.239652 -0.02065,0.09439 0.01327,0.143976 0.03687,0.170522 6.92e-4,6.92e-4 0.0037,0.0038 0.0046,0.0046 0.02988,0.02547 0.133653,0.08517 0.456262,0.161304 0.292007,0.07079 0.48539,0.134391 0.594524,0.188958 0.165178,0.08406 0.280579,0.193012 0.341046,0.327218 0.06046,0.132732 0.07374,0.288136 0.03687,0.456262 -0.03687,0.163701 -0.12038,0.314683 -0.244262,0.456263 -0.122406,0.141578 -0.278181,0.253662 -0.46548,0.331825 -0.185825,0.07669 -0.389711,0.119826 -0.599132,0.119826 -0.265461,0 -0.478567,-0.04019 -0.645218,-0.119826 -0.174026,-0.08259 -0.299567,-0.212921 -0.373305,-0.382522 -0.07079,-0.165177 -0.08591,-0.352659 -0.04609,-0.557653 0,-2e-6 0.01383,-0.06452 0.01383,-0.06452 0,0 0.530002,0 0.530002,0 0,0 -0.0046,0.06452 -0.0046,0.06452 -0.01327,0.122407 -1.73e-4,0.221217 0.03226,0.294957 0.03097,0.07079 0.08996,0.129412 0.184348,0.175131 0.100284,0.04867 0.225641,0.07374 0.368696,0.07374 0.128307,-1e-6 0.245553,-0.02157 0.350263,-0.05991 0.103234,-0.03687 0.185269,-0.08554 0.244261,-0.147479 0.05752,-0.06194 0.09125,-0.127385 0.106,-0.198176 0.01475,-0.06342 0.01124,-0.117059 -0.01383,-0.161304 -0.02802,-0.04719 -0.08351,-0.08904 -0.170521,-0.124435 0,-10e-7 -0.451655,-0.133653 -0.451655,-0.133653 -0.252188,-0.06341 -0.421972,-0.123881 -0.520783,-0.184347 -0.134207,-0.07964 -0.230989,-0.181768 -0.281132,-0.304175 -0.05014,-0.120935 -0.05549,-0.254954 -0.02304,-0.400958 0.03392,-0.156327 0.109318,-0.305096 0.225826,-0.437827 0.117985,-0.134207 0.270255,-0.239468 0.451654,-0.308784 0.160383,-0.06014 0.329164,-0.09541 0.506957,-0.101391 z m 4.839144,0.0092 c 0.02917,-0.0023 0.05659,0 0.08756,0 1e-6,0 0.331827,0.03687 0.331827,0.03687 0,0 0.110609,0.0092 0.110609,0.0092 2e-6,1e-6 -0.161304,0.410174 -0.161304,0.410174 -10e-7,2e-6 -0.03226,0.06452 -0.03226,0.06452 0,-1e-6 -0.253478,-0.02304 -0.253478,-0.02304 -0.07485,0 -0.129827,0.01155 -0.165914,0.03687 -0.0024,0.0018 -0.007,0.0073 -0.0092,0.0092 -0.0048,0.0042 -0.01297,0.01164 -0.01844,0.01844 -0.02219,0.0291 -0.04922,0.08111 -0.06913,0.175131 -2e-6,0 -0.0096,0.03982 -0.01844,0.07374 0.116509,10e-7 0.396348,0 0.396348,0 0,10e-7 -0.101391,0.456262 -0.101391,0.456262 0,-10e-7 -0.289795,0 -0.387131,0 -0.0295,0.132729 -0.39174,1.755917 -0.39174,1.755917 -2e-6,-1e-6 -0.53461,0 -0.53461,0 -2e-6,-1e-6 0.347496,-1.55977 0.39174,-1.755917 -0.08996,-10e-7 -0.308783,0 -0.308783,0 0,-10e-7 0.101391,-0.456262 0.101391,-0.456262 10e-7,10e-7 0.220112,0 0.304174,0 0.01475,-0.06342 0.03687,-0.14287 0.03687,-0.14287 0.03245,-0.147479 0.06637,-0.253479 0.110609,-0.327218 0.06047,-0.101759 0.145821,-0.18693 0.25348,-0.24887 0.08867,-0.05152 0.20082,-0.08233 0.327218,-0.09217 z m 1.276612,0.02304 c -2e-6,-1e-6 -0.139736,0.628812 -0.175131,0.788089 0.103234,10e-7 0.345653,0 0.345653,0 0,10e-7 -0.101391,0.456262 -0.101391,0.456262 -2e-6,-1e-6 -0.254217,0 -0.345653,0 -0.02802,0.126829 -0.24887,1.110699 -0.24887,1.110699 1e-6,-2e-6 -0.01844,0.118167 -0.01844,0.152087 2.4e-5,0.0011 -8.6e-5,0.0038 0,0.0046 7.3e-5,3.46e-4 -8.6e-5,0.0043 0,0.0046 1.73e-4,2.59e-4 0.0044,-1.73e-4 0.0046,0 0,-2e-6 0.0553,0.0046 0.0553,0.0046 0,0 0.253479,-0.01843 0.253479,-0.01843 0,0 -0.02765,0.410174 -0.02765,0.410174 2e-6,0 0.0046,0.07374 0.0046,0.07374 -2e-6,-10e-7 -0.364089,0.04148 -0.364089,0.04148 -0.144528,-10e-7 -0.25053,-0.0236 -0.327219,-0.07374 -0.08111,-0.0531 -0.128306,-0.123515 -0.147478,-0.212001 -0.0029,-0.01622 -0.0092,-0.03982 -0.0092,-0.07374 0,-0.06637 0.01254,-0.178634 0.05531,-0.373305 2e-6,10e-7 0.193749,-0.867913 0.235044,-1.050787 -0.06931,-1e-6 -0.253479,0 -0.253479,0 2e-6,-1e-6 0.101391,-0.456261 0.101391,-0.456261 -2e-6,10e-7 0.17974,0 0.25348,0 0.02359,-0.106184 0.105999,-0.470089 0.105999,-0.470089 0,2e-6 0.428611,-0.225826 0.428611,-0.225826 -10e-7,1e-6 0.175131,-0.09217 0.175131,-0.09217 z m -16.983087,0.01844 c 2e-6,0 2.073919,0 2.073919,0 0,0 -0.115218,0.516175 -0.115218,0.516175 0,2e-6 -1.383534,0 -1.516265,0 -0.0236,0.104712 -0.118167,0.528711 -0.152087,0.682089 0.191723,0 1.313482,0 1.313482,0 0,0 -0.115219,0.516174 -0.115219,0.516174 0,0 -1.180749,0 -1.313481,0 -0.02802,0.128307 -0.281131,1.267395 -0.281131,1.267395 1e-6,-10e-7 -0.557653,0 -0.557653,0 10e-7,-10e-7 0.663653,-2.981833 0.663653,-2.981833 z m 2.77905,0.728176 c 0.02082,-0.0026 0.04355,0 0.06452,0 0.132731,0 0.255323,0.04037 0.373306,0.124434 0,2e-6 0.07374,0.0507 0.07374,0.0507 0,0 -0.285739,0.470089 -0.285739,0.470089 0,-2e-6 -0.07835,-0.05531 -0.07835,-0.05531 -0.05752,-0.03687 -0.119457,-0.0553 -0.184348,-0.0553 -0.05604,10e-7 -0.108213,0.01991 -0.161305,0.0553 -0.05604,0.03687 -0.102867,0.08572 -0.138261,0.152088 -0.06194,0.11356 -0.107292,0.240758 -0.138262,0.377914 0,0 -0.24887,1.133741 -0.24887,1.133741 0,-1e-6 -0.53461,0 -0.53461,0 0,-1e-6 0.493132,-2.212179 0.493132,-2.212179 2e-6,10e-7 0.49774,0 0.49774,0 0,10e-7 -0.01714,0.0671 -0.02304,0.09217 0.0236,-0.0177 0.04848,-0.04203 0.06913,-0.0553 0.07144,-0.04263 0.146886,-0.06922 0.221217,-0.07835 z m 1.585396,0 c 0.03219,-0.0024 0.06388,0 0.09678,0 0.300857,0 0.528525,0.105446 0.677479,0.313392 0.09291,0.134204 0.142871,0.300118 0.142871,0.49774 0,0.109133 -0.01346,0.226564 -0.04148,0.35487 0,0 -0.04148,0.161306 -0.04148,0.161306 0,-2e-6 -1.35201,0 -1.502438,0 -0.0029,0.03097 -0.0046,0.06415 -0.0046,0.09217 0,0.115035 0.0236,0.205549 0.07374,0.271915 0.02383,0.03244 0.05145,0.06166 0.08296,0.08296 0.0594,0.03874 0.136073,0.05991 0.225827,0.05991 0.109136,-10e-7 0.204995,-0.03005 0.294957,-0.08756 0.08554,-0.05457 0.167389,-0.141764 0.239653,-0.262696 0,-3e-6 0.57148,0 0.57148,0 0,-3e-6 -0.0507,0.110608 -0.0507,0.110608 -0.109135,0.22122 -0.261407,0.393768 -0.451654,0.516176 -0.190247,0.122407 -0.417549,0.188956 -0.668263,0.188956 -0.325928,-10e-7 -0.568531,-0.105447 -0.718959,-0.313391 -0.148952,-0.203523 -0.181029,-0.484837 -0.101391,-0.838786 0.07964,-0.359847 0.238547,-0.64743 0.470088,-0.848002 0.207531,-0.179945 0.443023,-0.279756 0.705132,-0.299565 z m 2.401137,0 c 0.03219,-0.0024 0.06388,0 0.09678,0 0.300858,0 0.528528,0.105446 0.677481,0.313392 0.09291,0.134204 0.14287,0.300118 0.14287,0.49774 0,0.107658 -0.01346,0.22343 -0.04148,0.350262 0,1e-6 -0.04148,0.165914 -0.04148,0.165914 0,-2e-6 -1.352011,0 -1.502439,0 -0.0015,0.02064 -0.0031,0.03927 -0.0046,0.05991 -0.0011,0.0077 5.19e-4,0.0195 0,0.02765 -4.4e-5,0.0013 0,0.0033 0,0.0046 0,0.02212 0.0031,0.04387 0.0046,0.06452 0.0074,0.08406 0.02931,0.154299 0.06913,0.207392 0.0076,0.01032 0.01471,0.02307 0.02304,0.03226 0.06755,0.07226 0.163148,0.110608 0.28574,0.110608 0.109136,-1e-6 0.20647,-0.03005 0.294958,-0.08757 0.08554,-0.05457 0.167388,-0.141763 0.239653,-0.262695 0,-3e-6 0.576088,0 0.576088,0 -10e-7,-3e-6 -0.05531,0.110608 -0.05531,0.110608 -0.109134,0.22122 -0.261405,0.393768 -0.451653,0.516176 -0.190248,0.122407 -0.417549,0.188955 -0.668262,0.188955 -0.325927,0 -0.56853,-0.105446 -0.718959,-0.31339 -0.09734,-0.132733 -0.14287,-0.301779 -0.14287,-0.502349 0,-0.03097 0.0017,-0.06434 0.0046,-0.09678 0.0059,-0.07669 0.0177,-0.154116 0.03687,-0.239654 0.07964,-0.358372 0.233939,-0.64743 0.465479,-0.848002 0.207531,-0.179945 0.447633,-0.279756 0.709742,-0.299565 z m 6.539755,0 c 0.03294,-0.0025 0.06323,0 0.09678,0 0.306756,0 0.542538,0.103788 0.695915,0.308783 0.151905,0.204993 0.188773,0.481517 0.110608,0.829566 -0.06047,0.271363 -0.147846,0.490552 -0.267303,0.64983 -0.119461,0.159277 -0.27173,0.289426 -0.451655,0.377913 -0.178446,0.08849 -0.367406,0.133652 -0.557653,0.133652 -0.312655,-10e-7 -0.545487,-0.106922 -0.695915,-0.313391 -0.09734,-0.131256 -0.147479,-0.300304 -0.147479,-0.502349 2e-6,-0.109135 0.01198,-0.22509 0.04148,-0.354871 0.08849,-0.395244 0.269148,-0.696283 0.53461,-0.88948 0.194855,-0.140657 0.410045,-0.22193 0.64061,-0.239653 z m 8.097499,0 c 0.03889,-0.0024 0.07489,0 0.115217,0 0.185825,0 0.331828,0.0188 0.442437,0.06452 0.117983,0.0472 0.201677,0.113928 0.24887,0.193566 0.04572,0.07521 0.06913,0.167573 0.06913,0.281131 10e-7,1e-6 -0.05531,0.336436 -0.05531,0.336436 2e-6,0 -0.10139,0.456262 -0.10139,0.456262 -0.08702,0.389342 -0.106185,0.535347 -0.11061,0.589915 -0.0044,0.07374 0.0024,0.145635 0.02304,0.212 2e-6,-1e-6 0.03687,0.119826 0.03687,0.119826 2e-6,-1e-6 -0.543827,0 -0.543827,0 -10e-7,-1e-6 -0.02304,-0.06913 -0.02304,-0.06913 -0.0088,-0.03244 -0.0063,-0.07374 -0.0092,-0.110608 -0.103235,0.06342 -0.206654,0.119642 -0.299566,0.152087 -0.137154,0.04719 -0.279471,0.07374 -0.424001,0.07374 -0.250712,-1e-6 -0.436352,-0.06526 -0.548436,-0.193566 -0.08554,-0.09438 -0.124435,-0.209788 -0.124435,-0.341044 -1e-6,-0.05014 0.0066,-0.102129 0.01843,-0.156695 0.02507,-0.112084 0.07061,-0.215873 0.142871,-0.308785 0.07079,-0.09144 0.154484,-0.16665 0.24887,-0.221216 0.09144,-0.05457 0.193382,-0.09328 0.299566,-0.119828 -10e-7,0 0.327219,-0.0553 0.327219,-0.0553 0.252189,-0.0295 0.440407,-0.06618 0.576088,-0.106 0.0029,-0.01475 0.0092,-0.03226 0.0092,-0.03226 0.02138,-0.09489 0.01871,-0.166217 -0.0046,-0.202783 -0.0017,-0.0024 -0.0073,-0.0072 -0.0092,-0.0092 -0.005,-0.0053 -0.01263,-0.01365 -0.01843,-0.01843 -0.05547,-0.04389 -0.15006,-0.06452 -0.276522,-0.06452 -0.143055,0 -0.24887,0.02341 -0.32261,0.06913 -0.07226,0.04572 -0.139184,0.129413 -0.198174,0.24887 -10e-7,-10e-7 -0.557654,0 -0.557654,0 2e-6,-10e-7 0.0507,-0.110609 0.0507,-0.110609 0.06636,-0.153379 0.145451,-0.280578 0.244262,-0.377914 0.09881,-0.09734 0.232278,-0.172734 0.387131,-0.225825 0.118673,-0.03918 0.248259,-0.06517 0.387131,-0.07374 z m 2.336615,0 c 0.0208,-0.0026 0.04355,0 0.06452,0 0.134203,0 0.259931,0.04037 0.377914,0.124434 10e-7,2e-6 0.06913,0.0507 0.06913,0.0507 1e-6,0 -0.285739,0.470089 -0.285739,0.470089 1e-6,-2e-6 -0.07835,-0.05531 -0.07835,-0.05531 -0.05752,-0.03687 -0.116325,-0.0553 -0.17974,-0.0553 -0.05604,10e-7 -0.111346,0.01991 -0.165915,0.0553 -0.05604,0.03687 -0.09678,0.08572 -0.133651,0.152088 -0.06047,0.11356 -0.107292,0.240758 -0.138261,0.377914 -2e-6,0 -0.253479,1.133741 -0.253479,1.133741 1e-6,-1e-6 -0.53461,0 -0.53461,0 0,-1e-6 0.493131,-2.212179 0.493131,-2.212179 -1e-6,10e-7 0.49774,0 0.49774,0 0,10e-7 -0.01254,0.0671 -0.01843,0.09217 0.0236,-0.0177 0.04701,-0.04203 0.06913,-0.0553 0.07028,-0.04263 0.142332,-0.06922 0.21661,-0.07835 z m 1.580786,0 c 0.03216,-0.0024 0.06388,0 0.09678,0 0.300857,0 0.530001,0.105446 0.677481,0.313392 0.09439,0.134204 0.142869,0.300118 0.142869,0.49774 -10e-7,0.109133 -0.01807,0.226564 -0.04609,0.35487 0,0 -0.03687,0.161306 -0.03687,0.161306 0,-2e-6 -1.353485,0 -1.502438,0 -0.0029,0.03097 -0.0092,0.06415 -0.0092,0.09217 0,0.115035 0.02507,0.205549 0.07374,0.271915 0.0076,0.01032 0.01929,0.02307 0.02765,0.03226 0.0048,0.0052 0.01333,0.01364 0.01844,0.01843 0.06593,0.05994 0.155659,0.09217 0.267304,0.09217 0.109136,-10e-7 0.204996,-0.03005 0.294957,-0.08756 0.08554,-0.05457 0.165915,-0.141764 0.239654,-0.262696 -2e-6,-3e-6 0.576088,0 0.576088,0 0,-3e-6 -0.0553,0.110608 -0.0553,0.110608 -0.109134,0.22122 -0.26288,0.393768 -0.451653,0.516176 -0.191721,0.122407 -0.416074,0.188956 -0.668263,0.188956 -0.325925,-10e-7 -0.563921,-0.105447 -0.714349,-0.313391 -0.148956,-0.203523 -0.184164,-0.484837 -0.106,-0.838786 0.07964,-0.359847 0.233938,-0.64743 0.465479,-0.848002 0.208844,-0.179945 0.447872,-0.279756 0.709741,-0.299565 z m -8.069847,0.04148 c 1e-6,10e-7 0.548437,0 0.548437,0 2e-6,10e-7 0.06766,1.312745 0.06913,1.331916 0.02212,-0.04701 0.03929,-0.08656 0.04148,-0.09217 1e-6,10e-7 0.603739,-1.239743 0.603739,-1.239743 2e-6,1e-6 0.502349,0 0.502349,0 0,1e-6 0.04609,1.296889 0.04609,1.304263 0.01475,-0.02654 0.686698,-1.304263 0.686698,-1.304263 -2e-6,1e-6 0.543828,0 0.543828,0 -1e-6,1e-6 -1.198264,2.212179 -1.198264,2.212179 10e-7,-1e-6 -0.493132,0 -0.493132,0 0,-1e-6 -0.04774,-1.199553 -0.0507,-1.267395 -0.203522,0.417366 -0.617568,1.267395 -0.617568,1.267395 0,-1e-6 -0.506956,0 -0.506956,0 0,-1e-6 -0.175132,-2.212179 -0.175132,-2.212179 z M 20.984121,14.7986 c -0.127043,0.0054 -0.242418,0.05116 -0.350261,0.138261 -0.08554,0.06784 -0.14324,0.160938 -0.188958,0.262697 0,1e-6 0.907915,0 0.907915,0 0.0015,-0.01622 0.0046,-0.03595 0.0046,-0.0507 -2e-6,-0.08406 -0.01493,-0.149322 -0.04148,-0.193565 -0.06489,-0.106186 -0.16112,-0.156697 -0.304175,-0.156697 -0.0086,0 -0.01918,-3.46e-4 -0.02765,0 z m 2.401135,0 c -0.127041,0.0054 -0.242417,0.05116 -0.350261,0.138261 -0.08554,0.06784 -0.141763,0.160938 -0.188956,0.262697 0,1e-6 0.907915,0 0.907915,0 0.0015,-0.01622 0.0046,-0.03595 0.0046,-0.0507 -1e-6,-0.08406 -0.01346,-0.149322 -0.04148,-0.193565 -0.01288,-0.02157 -0.03031,-0.04302 -0.04609,-0.05991 -0.06158,-0.06363 -0.146326,-0.09678 -0.258087,-0.09678 -0.0086,0 -0.01918,-3.46e-4 -0.02765,0 z m 18.573092,0 c -0.130643,0.004 -0.252649,0.04825 -0.364088,0.138261 -0.08406,0.06784 -0.141765,0.160938 -0.188958,0.262697 2e-6,1e-6 0.903307,0 0.903307,0 0.0015,-0.01622 0.0046,-0.03595 0.0046,-0.0507 -10e-7,-0.08406 -0.01346,-0.149322 -0.04148,-0.193565 -0.06341,-0.104711 -0.161121,-0.155221 -0.304175,-0.156697 -0.0042,4.6e-5 -0.005,-8.6e-5 -0.0092,0 z m -12.074813,0.0092 c -0.121914,0.01448 -0.235275,0.0701 -0.341045,0.165913 -0.126831,0.115035 -0.218821,0.295695 -0.271913,0.53461 -0.02212,0.100286 -0.03226,0.186008 -0.03226,0.262696 2e-6,0.104709 0.02009,0.186929 0.05991,0.24887 0.0106,0.0159 0.02466,0.0327 0.03687,0.04609 0.06556,0.06961 0.15711,0.106 0.271913,0.106 0.148953,-1e-6 0.28021,-0.05549 0.405566,-0.170522 0.126834,-0.11651 0.217346,-0.299014 0.271913,-0.543827 0.05015,-0.224169 0.04314,-0.391556 -0.02765,-0.497741 -0.06784,-0.103235 -0.167019,-0.152087 -0.304174,-0.152087 -0.02327,0 -0.04656,-0.0027 -0.06913,0 z m 8.327933,0.806524 c -0.125354,0.03392 -0.26583,0.06249 -0.451653,0.08757 -0.138628,0.02065 -0.237441,0.0424 -0.294958,0.06452 -0.05014,0.02065 -0.09052,0.04922 -0.124435,0.08757 -0.03245,0.03687 -0.0542,0.07558 -0.06452,0.119826 -0.0029,0.0177 -0.0046,0.03595 -0.0046,0.0507 0,0.0012 -2.7e-5,0.0034 0,0.0046 1.73e-4,0.0035 -3.46e-4,0.01044 0,0.01383 9.25e-4,0.0067 0.0028,0.01681 0.0046,0.02304 6.92e-4,0.0021 0.0038,0.0072 0.0046,0.0092 0.0016,0.004 0.0026,0.01004 0.0046,0.01383 0.0021,0.0037 0.0067,0.01025 0.0092,0.01383 0.0039,0.0053 0.0091,0.01346 0.01383,0.01844 0.03687,0.04129 0.110424,0.05991 0.216608,0.05991 0.116511,10e-7 0.228593,-0.02212 0.331827,-0.07374 0.101762,-0.05014 0.183795,-0.124989 0.244262,-0.212001 0.04425,-0.06194 0.07964,-0.15725 0.110609,-0.28113 z"
         style="fill:#bc0000;fill-opacity:1;fill-rule:evenodd;stroke:none;stroke-width:0.0864865" />
      <path
         style="fill:#bd0000;fill-opacity:1;fill-rule:evenodd;stroke:none;stroke-width:0.0864865"
         id="path2583"
         d="m 41.973429,14.800226 c -0.0015,0 -0.0029,0 -0.0044,0 0.143055,0.0015 0.237441,0.05014 0.300856,0.154853 0.02802,0.04424 0.04277,0.110609 0.04277,0.194672 0,0.01475 -0.0029,0.03392 -0.0044,0.05014 0,0 0.0059,0 0.0059,0 0,-0.01622 0.0029,-0.03539 0.0029,-0.05014 0,-0.08406 -0.01327,-0.150428 -0.04129,-0.194672 -0.06341,-0.106185 -0.159277,-0.154853 -0.302331,-0.154853 z" />
      <g
         transform="matrix(0.14747867,0,0,0.14747867,11.959247,21.678774)"
         style="fill:#bc0000;fill-opacity:1;fill-rule:evenodd;stroke:none"
         id="g2587">
        <path
           style="fill:#bc0000;fill-opacity:1"
           d="m 0,36 c 0,0 7.46,0 7.46,0 0,0 3.35,-14 3.35,-14 0,0 12.12,0 12.12,0 0,0 1.56,-6 1.56,-6 0,0 -12.17,0 -12.17,0 0,0 2.02,-9 2.02,-9 0,0 12.95,0 12.95,0 0,0 1.56,-7 1.56,-7 C 28.85,0 8.4,0 8.4,0 8.4,0 0,36 0,36 Z"
           id="path2589" />
      </g>
      <g
         transform="matrix(0.14747867,0,0,0.14747867,15.786318,23.153559)"
         style="fill:#bc0000;fill-opacity:1;fill-rule:evenodd;stroke:none"
         id="g2591">
        <path
           style="fill:#bc0000;fill-opacity:1"
           d="m 7.51,26 c 0,0 2.24,-9.4 2.24,-9.4 1.18,-5.09 3.67,-9.6 8.38,-9.6 0.42,0 0.83,0.21 1.14,0.26 0,0 1.82,-7.21 1.82,-7.21 -0.42,0 -0.88,-0.05 -1.4,-0.05 -3.47,0 -6.38,2.44 -8.32,5.94 0,0 -0.2,0 -0.2,0 C 11.46,4.23 11.71,2.61 11.9,1 11.9,1 5.47,1 5.47,1 5.1,3.08 4.53,7.15 3.66,10.82 3.66,10.82 0,26 0,26 c 0,0 7.51,0 7.51,0 z"
           id="path2593" />
      </g>
      <g
         transform="matrix(0.14747867,0,0,0.14747867,18.828809,23.153559)"
         style="fill:#bc0000;fill-opacity:1;fill-rule:evenodd;stroke:none"
         id="g2595">
        <path
           style="fill:#bc0000;fill-opacity:1"
           d="M 20.06,19.25 C 17.99,20.26 15.63,20 12.88,20 10.71,20 9.03,19.62 8.11,18.88 7.63,18.07 7.43,16.81 7.47,16 17.6,16.27 23.99,13.93 24.31,7.53 24.55,2.7 21.02,0 15.89,0 6.73,0 0.73,8.08 0.34,15.86 0,22.65 3.52,26 10.78,26 c 2.79,0 6.49,-0.32 9.52,-1.23 0,0 -0.24,-5.52 -0.24,-5.52 z M 17.32,7.53 C 17.2,9.91 14.26,10.05 8.47,10 9.1,7.91 11.22,6 14.69,6 c 1.71,0 2.69,0.65 2.63,1.53 z"
           id="path2597" />
      </g>
      <g
         transform="matrix(0.14747867,0,0,0.14747867,22.739944,23.153559)"
         style="fill:#bc0000;fill-opacity:1;fill-rule:evenodd;stroke:none"
         id="g2599">
        <path
           style="fill:#bc0000;fill-opacity:1"
           d="M 20.05,19.25 C 17.98,20.26 15.62,20 12.88,20 10.7,20 9.03,19.62 8.11,18.88 7.63,18.07 7.42,16.81 7.46,16 17.6,16.27 23.98,13.93 24.31,7.53 24.55,2.7 21.02,0 15.89,0 6.72,0 0.72,8.08 0.33,15.86 0,22.65 3.52,26 10.77,26 c 2.8,0 6.5,-0.32 9.53,-1.23 0,0 -0.25,-5.52 -0.25,-5.52 z M 17.32,7.53 C 17.2,9.91 14.26,10.05 8.46,10 9.1,7.91 11.21,6 14.68,6 c 1.71,0 2.7,0.65 2.64,1.53 z"
           id="path2601" />
      </g>
      <g
         transform="matrix(0.14747867,0,0,0.14747867,28.035901,23.153559)"
         style="fill:#bc0000;fill-opacity:1;fill-rule:evenodd;stroke:none"
         id="g2603">
        <path
           style="fill:#bc0000;fill-opacity:1"
           d="M 22.74,26 C 22.8,22.83 23.56,17.85 24.35,14.58 24.35,14.58 27.56,1 27.56,1 25.52,0.31 22.34,0 19.28,0 6.86,0 0.7,9.2 0.27,17.82 0,23.23 2.93,26 7.49,26 c 2.95,0 6.28,-1.43 8.87,-5.73 0,0 0.11,0 0.11,0 -0.2,2.07 -0.44,4.08 -0.57,5.73 0,0 6.84,0 6.84,0 z M 17.61,11.72 C 16.15,18.08 13.17,20 10.95,20 8.88,20 7.98,18.53 8.1,16.39 8.34,11.56 12.16,6 16.98,6 c 0.78,0 1.39,-0.14 1.96,-0.28 0,0 -1.33,6 -1.33,6 z"
           id="path2605" />
      </g>
      <g
         transform="matrix(0.14747867,0,0,0.14747867,32.110738,23.153559)"
         style="fill:#bc0000;fill-opacity:1;fill-rule:evenodd;stroke:none"
         id="g2607">
        <path
           style="fill:#bc0000;fill-opacity:1"
           d="m 0,24.82 c 1.44,1.12 4.46,1.13 7.61,1.18 6.73,0.05 11.81,-2.89 12.11,-8.29 0.17,-3.6 -2.62,-5.73 -5.35,-7.16 C 12.4,9.6 11.41,8.69 11.46,7.63 11.53,6.2 12.87,6 14.84,6 c 2.22,0 4,0.27 5.02,0.47 0,0 2.02,-5.42 2.02,-5.42 C 20.73,0.36 18.43,0 15.48,0 8.95,0 4.17,3.45 3.9,8.69 c -0.16,3.24 2.17,5.42 4.99,6.9 2.28,1.17 3.06,2.07 3,3.34 C 11.82,20.21 10.68,20 8.61,20 6.18,20 3.49,19.68 2.07,19.46 2.07,19.46 0,24.82 0,24.82 Z"
           id="path2609" />
      </g>
      <g
         transform="matrix(0.14747867,0,0,0.14747867,36.896416,21.531297)"
         style="fill:#bc0000;fill-opacity:1;fill-rule:evenodd;stroke:none"
         id="g2611">
        <path
           style="fill:#bc0000;fill-opacity:1"
           d="m 7.45,37 c 0,0 6.05,-25 6.05,-25 0,0 -7.41,0 -7.41,0 0,0 -6.09,25 -6.09,25 0,0 7.45,0 7.45,0 z M 10.92,9 C 13.46,9 15.72,6.9 15.86,3.3 15.98,0.86 14.4,0 12.07,0 9.64,0 7.42,1.58 7.29,3.94 7.17,6.32 8.75,9 10.92,9 Z"
           id="path2613" />
      </g>
      <g
         transform="matrix(0.14747867,0,0,0.14747867,39.003885,23.255319)"
         style="fill:#bc0000;fill-opacity:1;fill-rule:evenodd;stroke:none"
         id="g2615">
        <path
           style="fill:#bc0000;fill-opacity:1"
           d="m 7.46,25.31 c 0,0 2.64,-11.26 2.64,-11.26 1.37,-5.73 4.32,-7.74 6.75,-7.74 1.92,0 2.48,0.82 2.39,2.01 -0.05,0.96 -0.2,1.97 -0.4,2.87 0,0 -3.36,14.12 -3.36,14.12 0,0 7.46,0 7.46,0 0,0 3.54,-14.81 3.54,-14.81 C 26.75,9.22 27.05,7.31 27.11,6.15 27.33,1.64 25.08,0 20.94,0 c -3.32,0 -6.55,1.54 -9.1,4.88 0,0 -0.1,0 -0.1,0 0,0 0.68,-4.57 0.68,-4.57 0,0 -6.58,0 -6.58,0 C 5.41,2.45 4.86,5.04 4.08,8.06 4.08,8.06 0,25.31 0,25.31 c 0,0 7.46,0 7.46,0 z"
           id="path2617" />
      </g>
      <g
         transform="matrix(0.14747867,0,0,0.14747867,44.838142,21.678774)"
         style="fill:#bc0000;fill-opacity:1;fill-rule:evenodd;stroke:none"
         id="g2619">
        <path
           style="fill:#bc0000;fill-opacity:1"
           d="m 0,36 c 0,0 7.46,0 7.46,0 0,0 3.36,-14 3.36,-14 0,0 12.11,0 12.11,0 0,0 1.56,-6 1.56,-6 0,0 -12.17,0 -12.17,0 0,0 2.02,-9 2.02,-9 0,0 12.95,0 12.95,0 0,0 1.56,-7 1.56,-7 C 28.85,0 8.4,0 8.4,0 8.4,0 0,36 0,36 Z"
           id="path2621" />
      </g>
      <g
         transform="matrix(0.14747867,0,0,0.14747867,48.665212,23.153559)"
         style="fill:#bc0000;fill-opacity:1;fill-rule:evenodd;stroke:none"
         id="g2623">
        <path
           style="fill:#bc0000;fill-opacity:1"
           d="m 7.51,26 c 0,0 2.24,-9.4 2.24,-9.4 1.18,-5.09 3.67,-9.6 8.38,-9.6 0.42,0 0.83,0.21 1.14,0.26 0,0 1.82,-7.21 1.82,-7.21 -0.42,0 -0.88,-0.05 -1.4,-0.05 -3.47,0 -6.38,2.44 -8.32,5.94 0,0 -0.2,0 -0.2,0 C 11.46,4.23 11.71,2.61 11.9,1 11.9,1 5.47,1 5.47,1 5.11,3.08 4.53,7.15 3.66,10.82 3.66,10.82 0,26 0,26 c 0,0 7.51,0 7.51,0 z"
           id="path2625" />
      </g>
      <g
         transform="matrix(0.14747867,0,0,0.14747867,51.707703,23.153559)"
         style="fill:#bc0000;fill-opacity:1;fill-rule:evenodd;stroke:none"
         id="g2627">
        <path
           style="fill:#bc0000;fill-opacity:1"
           d="M 20.06,19.25 C 17.99,20.26 15.63,20 12.88,20 10.71,20 9.03,19.62 8.11,18.88 7.63,18.07 7.43,16.81 7.47,16 17.6,16.27 23.99,13.93 24.31,7.53 24.55,2.7 21.02,0 15.89,0 6.73,0 0.73,8.08 0.34,15.86 0,22.65 3.53,26 10.78,26 c 2.79,0 6.5,-0.32 9.52,-1.23 0,0 -0.24,-5.52 -0.24,-5.52 z M 17.32,7.53 C 17.2,9.91 14.26,10.05 8.47,10 9.1,7.91 11.22,6 14.69,6 c 1.71,0 2.69,0.65 2.63,1.53 z"
           id="path2629" />
      </g>
      <g
         transform="matrix(0.14747867,0,0,0.14747867,55.61883,23.153559)"
         style="fill:#bc0000;fill-opacity:1;fill-rule:evenodd;stroke:none"
         id="g2631">
        <path
           style="fill:#bc0000;fill-opacity:1"
           d="M 20.05,19.25 C 17.98,20.26 15.62,20 12.88,20 10.7,20 9.03,19.62 8.11,18.88 7.63,18.07 7.42,16.81 7.46,16 17.6,16.27 23.98,13.93 24.31,7.53 24.55,2.7 21.02,0 15.89,0 6.72,0 0.72,8.08 0.33,15.86 0,22.65 3.52,26 10.77,26 c 2.8,0 6.5,-0.32 9.53,-1.23 0,0 -0.25,-5.52 -0.25,-5.52 z M 17.32,7.53 C 17.2,9.91 14.26,10.05 8.46,10 9.1,7.91 11.21,6 14.68,6 c 1.71,0 2.7,0.65 2.64,1.53 z"
           id="path2633" />
      </g>
      <g
         transform="matrix(0.14747867,0,0,0.14747867,59.509321,21.531297)"
         style="fill:#bc0000;fill-opacity:1;fill-rule:evenodd;stroke:none"
         id="g2635">
        <path
           style="fill:#bc0000;fill-opacity:1"
           d="M 23.31,0 C 23.31,0 20.5,11.36 20.5,11.36 19.48,10.94 18.15,11 17.11,11 7.53,11 0.75,19.2 0.3,28.08 0,34.34 3.34,37 7.64,37 c 3.01,0 6.18,-1.33 8.58,-4.77 0,0 0.1,0 0.1,0 0,0 -0.57,4.77 -0.57,4.77 0,0 6.78,0 6.78,0 0.31,-3 0.96,-6.57 1.69,-9.83 0,0 6.49,-27.17 6.49,-27.17 0,0 -7.4,0 -7.4,0 z M 17.47,24.42 C 16.3,29.35 13.54,31 11.36,31 9.19,31 7.98,29.49 8.13,26.8 8.38,21.82 11.8,17 16.25,17 c 1.25,0 2.32,0.19 2.91,0.47 0,0 -1.69,6.95 -1.69,6.95 z"
           id="path2637" />
      </g>
      <g
         transform="matrix(0.14747867,0,0,0.14747867,63.890908,23.153559)"
         style="fill:#bc0000;fill-opacity:1;fill-rule:evenodd;stroke:none"
         id="g2639">
        <path
           style="fill:#bc0000;fill-opacity:1"
           d="M 10.61,26 C 19.31,26 26.02,19.41 26.49,10.44 26.78,4.5 23.08,0 16.25,0 7.23,0 0.76,7.3 0.31,16.12 0,22.54 4.14,26 10.61,26 Z m 1.17,-6 C 9.24,20 7.84,18.38 7.99,15.96 8.19,11.93 10.68,6 14.97,6 c 2.96,0 3.87,2.27 3.75,4.5 -0.22,4.4 -2.9,9.5 -6.94,9.5 z"
           id="path2641" />
      </g>
      <g
         transform="matrix(0.14747867,0,0,0.14747867,68.102904,23.153559)"
         style="fill:#bc0000;fill-opacity:1;fill-rule:evenodd;stroke:none"
         id="g2643">
        <path
           style="fill:#bc0000;fill-opacity:1"
           d="M 7.2,26 C 7.2,26 9.9,14.58 9.9,14.58 11.03,9.49 13.85,6 16.38,6 c 1.82,0 2.32,1.33 2.23,3.07 -0.05,0.9 -0.25,1.91 -0.46,2.91 0,0 -3.34,14.02 -3.34,14.02 0,0 7.2,0 7.2,0 0,0 2.7,-11.47 2.7,-11.47 C 25.95,9.28 28.61,6 31.09,6 c 1.71,0 2.42,1.22 2.34,2.96 -0.05,1.01 -0.26,2.12 -0.52,3.13 0,0 -3.24,13.91 -3.24,13.91 0,0 7.25,0 7.25,0 0,0 3.49,-14.81 3.49,-14.81 0.27,-1.33 0.58,-3.4 0.63,-4.46 C 41.26,2.33 39.11,0 35.23,0 31.91,0 28.68,1.5 26.23,4.66 26.14,2.38 24.51,0 20.47,0 17.2,0 14.08,1.48 11.58,4.83 c 0,0 -0.1,0 -0.1,0 0,0 0.67,-3.83 0.67,-3.83 0,0 -6.42,0 -6.42,0 C 5.31,3.14 4.8,5.73 4.02,8.75 4.02,8.75 0,26 0,26 c 0,0 7.2,0 7.2,0 z"
           id="path2645" />
      </g>
      <path
         sodipodi:nodetypes="cccccssccccscccsccc"
         d="m 45.733516,17.092848 c 0.05987,0.153913 0.119736,0.307575 0.182097,0.457869 0.09604,0.204174 0.207045,0.399619 0.340501,0.582093 0.720914,0.979966 1.928256,1.516536 3.46113,1.650116 0,0 1.64887,0 1.64887,0 0.52135,-0.04066 1.067647,-0.116494 1.633901,-0.227251 0.976599,-0.190954 2.01182,-0.484307 3.086952,-0.876319 0.814456,-0.296973 1.651364,-0.648324 2.500744,-1.056673 1.849676,-0.886673 3.760468,-2.030278 5.635092,-3.410366 0.61739,-0.454125 1.209835,-0.920098 1.778583,-1.393928 0.521352,-0.433796 1.021501,-0.874329 1.499197,-1.319721 1.333314,-1.28492 2.339848,-2.589922 2.909844,-3.7357755 0.593688,-1.1932454 0.712182,-2.2134989 0.225754,-2.8562102 -0.298096,-0.3945047 -0.796997,-0.6059149 -1.439333,-0.6556801 2.893625,-2.1712182 4.579917,-4.80504491 3.975002,-6.4656348 -0.192083,-0.5299633 -0.614902,-0.9253363 -1.221066,-1.1439828 -0.269403,-0.096908 -0.572491,-0.1582789 -0.903014,-0.186214 0,0 -0.890537,0 -0.890537,0 -1.243509,0.089678 -3.051817,0.5349449 -4.585937,1.2867892"
         id="path2647"
         style="fill:#bd0000;fill-opacity:0;fill-rule:evenodd;stroke:#bc0000;stroke-width:0.737393;stroke-linecap:butt;stroke-linejoin:miter;stroke-miterlimit:4;stroke-opacity:1" />
    </g>
  </g>
</svg>
