<?xml version="1.0" encoding="UTF-8" standalone="no"?>
<svg
   xmlns:dc="http://purl.org/dc/elements/1.1/"
   xmlns:cc="http://creativecommons.org/ns#"
   xmlns:rdf="http://www.w3.org/1999/02/22-rdf-syntax-ns#"
   xmlns:svg="http://www.w3.org/2000/svg"
   xmlns="http://www.w3.org/2000/svg"
   style="enable-background:new"
   version="1.1"
   id="svg2"
   height="224"
   width="792">
  <defs
     id="defs4" />
  <metadata
     id="metadata7">
    <rdf:RDF>
      <cc:Work
         rdf:about="">
        <dc:format>image/svg+xml</dc:format>
        <dc:type
           rdf:resource="http://purl.org/dc/dcmitype/StillImage" />
        <dc:title />
        <cc:license
           rdf:resource="http://creativecommons.org/licenses/by-sa/4.0/" />
      </cc:Work>
      <cc:License
         rdf:about="http://creativecommons.org/licenses/by-sa/4.0/">
        <cc:permits
           rdf:resource="http://creativecommons.org/ns#Reproduction" />
        <cc:permits
           rdf:resource="http://creativecommons.org/ns#Distribution" />
        <cc:requires
           rdf:resource="http://creativecommons.org/ns#Notice" />
        <cc:requires
           rdf:resource="http://creativecommons.org/ns#Attribution" />
        <cc:permits
           rdf:resource="http://creativecommons.org/ns#DerivativeWorks" />
        <cc:requires
           rdf:resource="http://creativecommons.org/ns#ShareAlike" />
      </cc:License>
    </rdf:RDF>
  </metadata>
  <g
     style="display:inline"
     id="layer6">
    <g
       transform="translate(20,112)"
       id="export-button-curve-linear-over">
      <path
         id="rect2733"
         style="color:#000000;clip-rule:nonzero;display:inline;overflow:visible;visibility:visible;isolation:auto;mix-blend-mode:normal;color-interpolation:sRGB;color-interpolation-filters:linearRGB;solid-color:#000000;solid-opacity:1;fill:#a04000;fill-opacity:1;fill-rule:nonzero;stroke:#000000;stroke-width:0.999999;stroke-linecap:round;stroke-linejoin:round;stroke-miterlimit:4;stroke-dasharray:none;stroke-dashoffset:0;stroke-opacity:1;marker:none;color-rendering:auto;image-rendering:auto;shape-rendering:auto;text-rendering:auto;enable-background:accumulate"
         d="m 810.5,-111.5 h 39 c 5.54,0 10,4.237 10,9.5 0,5.263001 -4.46,9.500002 -10,9.500002 h -39 c -5.54,0 -10,-4.237001 -10,-9.500002 0,-5.263 4.46,-9.5 10,-9.5 z" />
      <g
         aria-label="Linear"
         id="text2737"
         style="font-style:normal;font-variant:normal;font-weight:600;font-stretch:normal;font-size:10.6667px;line-height:0%;font-family:sans-serif;-inkscape-font-specification:'Avenir Next LT Pro Semi-Bold';text-align:center;letter-spacing:0px;word-spacing:0px;text-anchor:middle;display:inline;fill:#000000;fill-opacity:1;stroke:none;enable-background:new">
        <path
           d="m 815.2815,-98.261322 h 4.55468 v -1.19467 h -3.21068 v -6.357358 h -1.344 z"
           style="font-style:normal;font-variant:normal;font-weight:600;font-stretch:normal;font-size:10.6667px;line-height:1.25;font-family:'Avenir Next LT Pro';-inkscape-font-specification:'Avenir Next LT Pro Semi-Bold';fill:#000000"
           id="path26240" />
        <path
           d="m 820.68951,-98.261322 h 1.28001 v -5.120018 h -1.28001 z m -0.18133,-6.858688 c 0,0.40533 0.34133,0.768 0.81067,0.768 0.46933,0 0.832,-0.33067 0.832,-0.768 0,-0.43734 -0.36267,-0.768 -0.832,-0.768 -0.46934,0 -0.81067,0.36267 -0.81067,0.768 z"
           style="font-style:normal;font-variant:normal;font-weight:600;font-stretch:normal;font-size:10.6667px;line-height:1.25;font-family:'Avenir Next LT Pro';-inkscape-font-specification:'Avenir Next LT Pro Semi-Bold';fill:#000000"
           id="path26242" />
        <path
           d="m 823.52685,-98.261322 h 1.28 v -2.816008 c 0,-0.68267 0.38401,-1.38667 1.19468,-1.38667 0.82133,0 0.96,0.75733 0.96,1.36534 v 2.837338 h 1.28 v -3.200008 c 0,-1.04534 -0.55467,-2.06934 -1.888,-2.06934 -0.75734,0 -1.36534,0.45867 -1.58934,0.97067 h -0.0213 v -0.82134 h -1.216 z"
           style="font-style:normal;font-variant:normal;font-weight:600;font-stretch:normal;font-size:10.6667px;line-height:1.25;font-family:'Avenir Next LT Pro';-inkscape-font-specification:'Avenir Next LT Pro Semi-Bold';fill:#000000"
           id="path26244" />
        <path
           d="m 830.71619,-101.33333 c 0.0533,-0.71467 0.66134,-1.23734 1.41868,-1.23734 0.832,0 1.20533,0.576 1.20533,1.23734 z m 3.90402,0.576 c 0,-1.84534 -1.04534,-2.77334 -2.47468,-2.77334 -1.54667,0 -2.70934,1.088 -2.70934,2.74134 0,1.664005 1.17334,2.677342 2.75201,2.677342 0.97067,0 1.696,-0.341335 2.19734,-1.024003 l -0.85334,-0.682669 c -0.288,0.405334 -0.71467,0.661335 -1.35467,0.661335 -0.74667,0 -1.408,-0.533335 -1.46134,-1.258675 h 3.89335 c 0.0107,-0.11733 0.0107,-0.224 0.0107,-0.34133 z"
           style="font-style:normal;font-variant:normal;font-weight:600;font-stretch:normal;font-size:10.6667px;line-height:1.25;font-family:'Avenir Next LT Pro';-inkscape-font-specification:'Avenir Next LT Pro Semi-Bold';fill:#000000"
           id="path26246" />
        <path
           d="m 838.97221,-98.261322 h 1.19467 V -101.376 c 0,-1.024 -0.448,-2.15467 -2.28268,-2.15467 -0.77866,0 -1.58933,0.27733 -2.16534,0.81067 l 0.66134,0.77867 c 0.33067,-0.33067 0.85334,-0.58667 1.39734,-0.58667 0.64,0 1.17333,0.30933 1.17333,0.93867 v 0.128 c -1.6,0 -3.52001,0.21333 -3.52001,1.73867 0,1.19467 1.09867,1.589338 1.92001,1.589338 0.72534,0 1.33334,-0.330667 1.58934,-0.778669 h 0.032 z m -0.0213,-2.154678 c 0,0.810674 -0.46933,1.312009 -1.344,1.312009 -0.43733,0 -0.896,-0.149334 -0.896,-0.640002 0,-0.757337 1.14133,-0.853337 1.952,-0.853337 h 0.288 z"
           style="font-style:normal;font-variant:normal;font-weight:600;font-stretch:normal;font-size:10.6667px;line-height:1.25;font-family:'Avenir Next LT Pro';-inkscape-font-specification:'Avenir Next LT Pro Semi-Bold';fill:#000000"
           id="path26248" />
        <path
           d="m 841.66021,-98.261322 h 1.28 v -2.741338 c 0,-0.37334 0.224,-1.37601 1.37601,-1.37601 0.11733,0 0.224,0.0107 0.39467,0.0533 v -1.17334 c -0.0853,-0.0213 -0.21334,-0.032 -0.30934,-0.032 -0.672,0 -1.216,0.416 -1.49334,1.00267 h -0.0213 v -0.85334 h -1.22667 z"
           style="font-style:normal;font-variant:normal;font-weight:600;font-stretch:normal;font-size:10.6667px;line-height:1.25;font-family:'Avenir Next LT Pro';-inkscape-font-specification:'Avenir Next LT Pro Semi-Bold';fill:#000000"
           id="path26250" />
      </g>
    </g>
  </g>
</svg>
