<?xml version="1.0" encoding="UTF-8" standalone="no"?>
<svg
   xmlns:dc="http://purl.org/dc/elements/1.1/"
   xmlns:cc="http://creativecommons.org/ns#"
   xmlns:rdf="http://www.w3.org/1999/02/22-rdf-syntax-ns#"
   xmlns:svg="http://www.w3.org/2000/svg"
   xmlns="http://www.w3.org/2000/svg"
   style="enable-background:new"
   version="1.1"
   id="svg2"
   height="218"
   width="778">
  <defs
     id="defs4" />
  <metadata
     id="metadata7">
    <rdf:RDF>
      <cc:Work
         rdf:about="">
        <dc:format>image/svg+xml</dc:format>
        <dc:type
           rdf:resource="http://purl.org/dc/dcmitype/StillImage" />
        <dc:title />
        <cc:license
           rdf:resource="http://creativecommons.org/licenses/by-sa/4.0/" />
      </cc:Work>
      <cc:License
         rdf:about="http://creativecommons.org/licenses/by-sa/4.0/">
        <cc:permits
           rdf:resource="http://creativecommons.org/ns#Reproduction" />
        <cc:permits
           rdf:resource="http://creativecommons.org/ns#Distribution" />
        <cc:requires
           rdf:resource="http://creativecommons.org/ns#Notice" />
        <cc:requires
           rdf:resource="http://creativecommons.org/ns#Attribution" />
        <cc:permits
           rdf:resource="http://creativecommons.org/ns#DerivativeWorks" />
        <cc:requires
           rdf:resource="http://creativecommons.org/ns#ShareAlike" />
      </cc:License>
    </rdf:RDF>
  </metadata>
  <g
     style="display:inline"
     id="layer6">
    <g
       id="export-button-about-over"
       transform="translate(180,342)">
      <path
         d="m 810.5,-111.5 h 39 c 5.54,0 10,4.237 10,9.5 0,5.263001 -4.46,9.500002 -10,9.500002 h -39 c -5.54,0 -10,-4.237001 -10,-9.500002 0,-5.263 4.46,-9.5 10,-9.5 z"
         style="color:#000000;clip-rule:nonzero;display:inline;overflow:visible;visibility:visible;isolation:auto;mix-blend-mode:normal;color-interpolation:sRGB;color-interpolation-filters:linearRGB;solid-color:#000000;solid-opacity:1;fill:#0071a0;fill-opacity:1;fill-rule:nonzero;stroke:#000000;stroke-width:0.999999;stroke-linecap:round;stroke-linejoin:round;stroke-miterlimit:4;stroke-dasharray:none;stroke-dashoffset:0;stroke-opacity:1;marker:none;color-rendering:auto;image-rendering:auto;shape-rendering:auto;text-rendering:auto;enable-background:accumulate"
         id="rect2305" />
      <g
         style="font-style:normal;font-variant:normal;font-weight:600;font-stretch:normal;font-size:10.6667px;line-height:0%;font-family:sans-serif;-inkscape-font-specification:'Avenir Next LT Pro Semi-Bold';text-align:center;letter-spacing:0px;word-spacing:0px;text-anchor:middle;display:inline;fill:#000000;fill-opacity:1;stroke:none;enable-background:new"
         id="text2309"
         aria-label="About">
        <path
           id="path7664"
           style="font-style:normal;font-variant:normal;font-weight:600;font-stretch:normal;font-size:10.6667px;line-height:1.25;font-family:'Avenir Next LT Pro';-inkscape-font-specification:'Avenir Next LT Pro Semi-Bold';fill:#000000"
           d="m 814.72394,-98.261322 h 1.50401 l 0.68267,-1.728005 h 3.27467 l 0.70401,1.728005 h 1.536 l -3.25334,-7.552028 h -1.16267 z m 2.64535,-2.880008 1.184,-3.07201 1.16267,3.07201 z" />
        <path
           id="path7666"
           style="font-style:normal;font-variant:normal;font-weight:600;font-stretch:normal;font-size:10.6667px;line-height:1.25;font-family:'Avenir Next LT Pro';-inkscape-font-specification:'Avenir Next LT Pro Semi-Bold';fill:#000000"
           d="m 823.11947,-106.32535 v 8.064028 h 1.216 v -0.768002 h 0.0213 c 0.352,0.586668 1.04533,0.917336 1.76,0.917336 1.55734,0 2.51734,-1.237337 2.51734,-2.730672 0,-1.51467 -1.024,-2.68801 -2.48534,-2.68801 -0.93867,0 -1.45067,0.46933 -1.71734,0.8 h -0.032 v -3.59468 z m 4.21335,5.48269 c 0,0.8 -0.48,1.664002 -1.47201,1.664002 -0.93867,0 -1.504,-0.842672 -1.504,-1.642672 0,-0.8 0.56533,-1.66401 1.504,-1.66401 0.99201,0 1.47201,0.84267 1.47201,1.64268 z" />
        <path
           id="path7668"
           style="font-style:normal;font-variant:normal;font-weight:600;font-stretch:normal;font-size:10.6667px;line-height:1.25;font-family:'Avenir Next LT Pro';-inkscape-font-specification:'Avenir Next LT Pro Semi-Bold';fill:#000000"
           d="m 829.57032,-100.84266 c 0,1.610668 1.23734,2.730672 2.78401,2.730672 1.54667,0 2.78401,-1.120004 2.78401,-2.730672 0,-1.61068 -1.23734,-2.68801 -2.78401,-2.68801 -1.54667,0 -2.78401,1.07733 -2.78401,2.68801 z m 1.30134,0 c 0,-0.80001 0.46934,-1.64268 1.48267,-1.64268 1.01334,0 1.48267,0.84267 1.48267,1.64268 0,0.8 -0.46933,1.664002 -1.48267,1.664002 -1.01333,0 -1.48267,-0.864002 -1.48267,-1.664002 z" />
        <path
           id="path7670"
           style="font-style:normal;font-variant:normal;font-weight:600;font-stretch:normal;font-size:10.6667px;line-height:1.25;font-family:'Avenir Next LT Pro';-inkscape-font-specification:'Avenir Next LT Pro Semi-Bold';fill:#000000"
           d="m 841.04103,-103.38134 h -1.28001 v 2.81601 c 0,0.68267 -0.384,1.386672 -1.19467,1.386672 -0.82133,0 -0.96,-0.757336 -0.96,-1.365342 v -2.83734 h -1.28 v 3.20001 c 0,1.045339 0.55466,2.069342 1.888,2.069342 0.75734,0 1.36534,-0.458668 1.58934,-0.97067 h 0.0213 v 0.821336 h 1.21601 z" />
        <path
           id="path7672"
           style="font-style:normal;font-variant:normal;font-weight:600;font-stretch:normal;font-size:10.6667px;line-height:1.25;font-family:'Avenir Next LT Pro';-inkscape-font-specification:'Avenir Next LT Pro Semi-Bold';fill:#000000"
           d="m 842.73737,-102.35733 v 2.389336 c 0,0.981336 0.30933,1.813339 1.664,1.813339 0.288,0 0.62934,-0.05333 0.85334,-0.138667 l -0.0427,-1.00267 c -0.14933,0.07467 -0.37333,0.106667 -0.544,0.106667 -0.56534,0 -0.672,-0.330668 -0.672,-0.789336 v -2.378669 h 1.28 v -1.02401 h -1.28 v -1.48267 h -1.25867 v 1.48267 h -0.89601 v 1.02401 z" />
      </g>
    </g>
  </g>
</svg>
