<?xml version="1.0" encoding="UTF-8" standalone="no"?>
<svg
   xmlns:dc="http://purl.org/dc/elements/1.1/"
   xmlns:cc="http://creativecommons.org/ns#"
   xmlns:rdf="http://www.w3.org/1999/02/22-rdf-syntax-ns#"
   xmlns:svg="http://www.w3.org/2000/svg"
   xmlns="http://www.w3.org/2000/svg"
   xmlns:xlink="http://www.w3.org/1999/xlink"
   width="773"
   height="213"
   id="svg2"
   version="1.1"
   style="enable-background:new">
  <defs
     id="defs4">
    <pattern
       xlink:href="#pattern1836"
       id="pattern2556"
       patternTransform="matrix(0.78764252,1.364237,-9.5105949,5.4909442,859.00006,-122.99997)" />
    <pattern
       xlink:href="#pattern6575"
       id="pattern1836"
       patternTransform="matrix(0.78764252,1.364237,-9.5105949,5.4909442,930.00001,-122.99997)" />
    <pattern
       xlink:href="#pattern11850"
       id="pattern6575"
       patternTransform="matrix(0.78764252,1.364237,-9.5105949,5.4909442,930.00001,-122.99997)" />
    <pattern
       xlink:href="#pattern6644"
       id="pattern11850"
       patternTransform="matrix(0.78764252,1.364237,-9.5105949,5.4909442,130.00001,147.00003)" />
    <pattern
       xlink:href="#pattern6132"
       id="pattern6644"
       patternTransform="matrix(0.78764252,1.364237,-9.5105949,5.4909442,930.00001,-122.99997)" />
    <pattern
       xlink:href="#pattern5618"
       id="pattern6132"
       patternTransform="matrix(0.78764252,1.364237,-9.5105949,5.4909442,130.00001,147.00003)" />
    <pattern
       xlink:href="#pattern25706"
       id="pattern5618"
       patternTransform="matrix(0.78764252,1.364237,-9.5105949,5.4909442,130.00001,147.00003)" />
    <pattern
       xlink:href="#pattern20948"
       id="pattern25706"
       patternTransform="matrix(0.78764255,1.364237,-9.5105953,5.4909442,130.00002,147.00003)" />
    <pattern
       xlink:href="#pattern20628"
       id="pattern20948"
       patternTransform="matrix(0.78764255,1.364237,-9.5105953,5.4909442,930.00002,-122.99997)" />
    <pattern
       xlink:href="#pattern6948"
       id="pattern20628"
       patternTransform="matrix(0.78764254,1.364237,-9.5105951,5.4909442,290.00001,147.00003)" />
    <pattern
       xlink:href="#pattern13272"
       id="pattern6948"
       patternTransform="matrix(0.78764254,1.364237,-9.5105951,5.4909442,290.00001,147.00003)" />
    <pattern
       xlink:href="#pattern13037"
       id="pattern13272"
       patternTransform="matrix(0.78764254,1.364237,-9.5105951,5.4909442,290.00001,147.00003)" />
    <pattern
       xlink:href="#pattern9313-9-6"
       id="pattern13037"
       patternTransform="matrix(0.78764254,1.364237,-9.5105951,5.4909442,930.00001,-122.99997)" />
    <pattern
       patternTransform="matrix(0.78764255,1.364237,-9.5105957,5.4909443,389.99998,-313.99998)"
       id="pattern9313-9-6"
       xlink:href="#Strips1_1-7-9" />
    <pattern
       patternUnits="userSpaceOnUse"
       width="2"
       height="1"
       patternTransform="translate(0,0) scale(10,10)"
       id="Strips1_1-7-9">
      <rect
         style="fill:black;stroke:none"
         x="0"
         y="-0.5"
         width="1"
         height="2"
         id="rect8592-4-3" />
    </pattern>
  </defs>
  <metadata
     id="metadata7">
    <rdf:RDF>
      <cc:Work
         rdf:about="">
        <dc:format>image/svg+xml</dc:format>
        <dc:type
           rdf:resource="http://purl.org/dc/dcmitype/StillImage" />
        <dc:title />
        <cc:license
           rdf:resource="http://creativecommons.org/licenses/by-sa/4.0/" />
      </cc:Work>
      <cc:License
         rdf:about="http://creativecommons.org/licenses/by-sa/4.0/">
        <cc:permits
           rdf:resource="http://creativecommons.org/ns#Reproduction" />
        <cc:permits
           rdf:resource="http://creativecommons.org/ns#Distribution" />
        <cc:requires
           rdf:resource="http://creativecommons.org/ns#Notice" />
        <cc:requires
           rdf:resource="http://creativecommons.org/ns#Attribution" />
        <cc:permits
           rdf:resource="http://creativecommons.org/ns#DerivativeWorks" />
        <cc:requires
           rdf:resource="http://creativecommons.org/ns#ShareAlike" />
      </cc:License>
    </rdf:RDF>
  </metadata>
  <g
     id="layer6"
     style="display:inline">
    <g
       transform="translate(180,282)"
       id="export-button-about-over">
      <path
         d="m 810.5,-111.5 h 39 c 5.54,0 10,4.237 10,9.5 0,5.263001 -4.46,9.500002 -10,9.500002 h -39 c -5.54,0 -10,-4.237001 -10,-9.500002 0,-5.263 4.46,-9.5 10,-9.5 z"
         style="color:#000000;clip-rule:nonzero;display:inline;overflow:visible;visibility:visible;isolation:auto;mix-blend-mode:normal;color-interpolation:sRGB;color-interpolation-filters:linearRGB;solid-color:#000000;solid-opacity:1;fill:#0071a0;fill-opacity:1;fill-rule:nonzero;stroke:#000000;stroke-width:0.999999;stroke-linecap:round;stroke-linejoin:round;stroke-miterlimit:4;stroke-dasharray:none;stroke-dashoffset:0;stroke-opacity:1;marker:none;color-rendering:auto;image-rendering:auto;shape-rendering:auto;text-rendering:auto;enable-background:accumulate"
         id="rect2305" />
      <g
         style="font-style:normal;font-variant:normal;font-weight:600;font-stretch:normal;font-size:10.6667px;line-height:0%;font-family:sans-serif;-inkscape-font-specification:'Avenir Next LT Pro Semi-Bold';text-align:center;letter-spacing:0px;word-spacing:0px;text-anchor:middle;display:inline;fill:#000000;fill-opacity:1;stroke:none;enable-background:new"
         id="text2309"
         aria-label="About">
        <path
           id="path1479"
           style="font-style:normal;font-variant:normal;font-weight:600;font-stretch:normal;font-size:10.6667px;line-height:1.25;font-family:'Avenir Next LT Pro';-inkscape-font-specification:'Avenir Next LT Pro Semi-Bold';fill:#000000"
           d="m 814.2143,-98.261322 h 1.50401 l 0.68266,-1.728005 h 3.27468 l 0.704,1.728005 h 1.53601 l -3.25335,-7.552028 h -1.16267 z m 2.64534,-2.880008 1.18401,-3.07201 1.16267,3.07201 z" />
        <path
           id="path1481"
           style="font-style:normal;font-variant:normal;font-weight:600;font-stretch:normal;font-size:10.6667px;line-height:1.25;font-family:'Avenir Next LT Pro';-inkscape-font-specification:'Avenir Next LT Pro Semi-Bold';fill:#000000"
           d="m 822.60983,-106.32535 v 8.064028 h 1.216 v -0.768002 h 0.0213 c 0.35201,0.586668 1.04534,0.917336 1.76001,0.917336 1.55734,0 2.51734,-1.237337 2.51734,-2.730672 0,-1.51467 -1.024,-2.68801 -2.48534,-2.68801 -0.93867,0 -1.45067,0.46933 -1.71734,0.8 h -0.032 v -3.59468 z m 4.21334,5.48269 c 0,0.8 -0.48,1.664002 -1.472,1.664002 -0.93867,0 -1.50401,-0.842672 -1.50401,-1.642672 0,-0.8 0.56534,-1.66401 1.50401,-1.66401 0.992,0 1.472,0.84267 1.472,1.64268 z" />
        <path
           id="path1483"
           style="font-style:normal;font-variant:normal;font-weight:600;font-stretch:normal;font-size:10.6667px;line-height:1.25;font-family:'Avenir Next LT Pro';-inkscape-font-specification:'Avenir Next LT Pro Semi-Bold';fill:#000000"
           d="m 829.06068,-100.84266 c 0,1.610668 1.23734,2.730672 2.78401,2.730672 1.54667,0 2.78401,-1.120004 2.78401,-2.730672 0,-1.61068 -1.23734,-2.68801 -2.78401,-2.68801 -1.54667,0 -2.78401,1.07733 -2.78401,2.68801 z m 1.30134,0 c 0,-0.80001 0.46933,-1.64268 1.48267,-1.64268 1.01334,0 1.48267,0.84267 1.48267,1.64268 0,0.8 -0.46933,1.664002 -1.48267,1.664002 -1.01334,0 -1.48267,-0.864002 -1.48267,-1.664002 z" />
        <path
           id="path1485"
           style="font-style:normal;font-variant:normal;font-weight:600;font-stretch:normal;font-size:10.6667px;line-height:1.25;font-family:'Avenir Next LT Pro';-inkscape-font-specification:'Avenir Next LT Pro Semi-Bold';fill:#000000"
           d="m 840.53138,-103.38134 h -1.28 v 2.81601 c 0,0.68267 -0.384,1.386672 -1.19467,1.386672 -0.82134,0 -0.96,-0.757336 -0.96,-1.365342 v -2.83734 h -1.28001 v 3.20001 c 0,1.045339 0.55467,2.069342 1.88801,2.069342 0.75733,0 1.36534,-0.458668 1.58934,-0.97067 h 0.0213 v 0.821336 h 1.216 z" />
        <path
           id="path1487"
           style="font-style:normal;font-variant:normal;font-weight:600;font-stretch:normal;font-size:10.6667px;line-height:1.25;font-family:'Avenir Next LT Pro';-inkscape-font-specification:'Avenir Next LT Pro Semi-Bold';fill:#000000"
           d="m 842.22772,-102.35733 v 2.389336 c 0,0.981336 0.30934,1.813339 1.66401,1.813339 0.288,0 0.62933,-0.05333 0.85333,-0.138667 l -0.0427,-1.00267 c -0.14934,0.07467 -0.37334,0.106667 -0.544,0.106667 -0.56534,0 -0.67201,-0.330668 -0.67201,-0.789336 v -2.378669 h 1.28001 v -1.02401 h -1.28001 v -1.48267 h -1.25867 v 1.48267 h -0.896 v 1.02401 z" />
      </g>
    </g>
  </g>
</svg>
