<?xml version="1.0" encoding="UTF-8" standalone="no"?>
<svg
   xmlns:dc="http://purl.org/dc/elements/1.1/"
   xmlns:cc="http://creativecommons.org/ns#"
   xmlns:rdf="http://www.w3.org/1999/02/22-rdf-syntax-ns#"
   xmlns:svg="http://www.w3.org/2000/svg"
   xmlns="http://www.w3.org/2000/svg"
   style="enable-background:new"
   version="1.1"
   id="svg2"
   height="213"
   width="773">
  <defs
     id="defs4" />
  <metadata
     id="metadata7">
    <rdf:RDF>
      <cc:Work
         rdf:about="">
        <dc:format>image/svg+xml</dc:format>
        <dc:type
           rdf:resource="http://purl.org/dc/dcmitype/StillImage" />
        <dc:title />
        <cc:license
           rdf:resource="http://creativecommons.org/licenses/by-sa/4.0/" />
      </cc:Work>
      <cc:License
         rdf:about="http://creativecommons.org/licenses/by-sa/4.0/">
        <cc:permits
           rdf:resource="http://creativecommons.org/ns#Reproduction" />
        <cc:permits
           rdf:resource="http://creativecommons.org/ns#Distribution" />
        <cc:requires
           rdf:resource="http://creativecommons.org/ns#Notice" />
        <cc:requires
           rdf:resource="http://creativecommons.org/ns#Attribution" />
        <cc:permits
           rdf:resource="http://creativecommons.org/ns#DerivativeWorks" />
        <cc:requires
           rdf:resource="http://creativecommons.org/ns#ShareAlike" />
      </cc:License>
    </rdf:RDF>
  </metadata>
  <g
     style="display:inline"
     id="layer6">
    <g
       id="export-button-bypass-on"
       transform="translate(-382,291)">
      <path
         d="m 810.5,-111.5 h 39 c 5.54,0 10,4.237 10,9.5 0,5.263001 -4.46,9.500002 -10,9.500002 h -39 c -5.54,0 -10,-4.237001 -10,-9.500002 0,-5.263 4.46,-9.5 10,-9.5 z"
         style="color:#000000;clip-rule:nonzero;display:inline;overflow:visible;visibility:visible;isolation:auto;mix-blend-mode:normal;color-interpolation:sRGB;color-interpolation-filters:linearRGB;solid-color:#000000;solid-opacity:1;fill:#ff0000;fill-opacity:1;fill-rule:nonzero;stroke:#000000;stroke-width:0.999999;stroke-linecap:round;stroke-linejoin:round;stroke-miterlimit:4;stroke-dasharray:none;stroke-dashoffset:0;stroke-opacity:1;marker:none;color-rendering:auto;image-rendering:auto;shape-rendering:auto;text-rendering:auto;enable-background:accumulate"
         id="rect2112" />
      <g
         style="font-style:normal;font-variant:normal;font-weight:600;font-stretch:normal;font-size:10.6667px;line-height:0%;font-family:sans-serif;-inkscape-font-specification:'Avenir Next LT Pro Semi-Bold';text-align:center;letter-spacing:0px;word-spacing:0px;text-anchor:middle;display:inline;fill:#000000;fill-opacity:1;stroke:none;enable-background:new"
         id="text2116"
         aria-label="Bypass">
        <path
           id="path1415"
           style="font-style:normal;font-variant:normal;font-weight:600;font-stretch:normal;font-size:10.6667px;line-height:1.25;font-family:'Avenir Next LT Pro';-inkscape-font-specification:'Avenir Next LT Pro Semi-Bold';fill:#000000"
           d="m 813.21496,-98.261322 h 2.72001 c 1.42934,0 2.85868,-0.554668 2.85868,-2.197338 0,-1.01334 -0.68267,-1.65334 -1.63201,-1.78134 v -0.0213 c 0.77867,-0.23467 1.31201,-0.80001 1.31201,-1.65334 0,-1.37601 -1.17334,-1.89868 -2.31468,-1.89868 h -2.94401 z m 1.34401,-6.442688 h 1.07734 c 1.01333,0 1.49333,0.26667 1.49333,0.93867 0,0.65067 -0.48,1.024 -1.376,1.024 h -1.19467 z m 0,3.11468 h 1.25867 c 1.088,0 1.632,0.27733 1.632,1.06667 0,0.992001 -0.992,1.130668 -1.68533,1.130668 h -1.20534 z" />
        <path
           id="path1417"
           style="font-style:normal;font-variant:normal;font-weight:600;font-stretch:normal;font-size:10.6667px;line-height:1.25;font-family:'Avenir Next LT Pro';-inkscape-font-specification:'Avenir Next LT Pro Semi-Bold';fill:#000000"
           d="m 821.47616,-98.261322 -0.256,0.650669 c -0.21334,0.533335 -0.36267,0.800002 -0.90667,0.800002 -0.13867,0 -0.30934,-0.02133 -0.48001,-0.07467 l -0.10666,1.109337 c 0.224,0.05333 0.448,0.07467 0.66133,0.07467 1.13067,0 1.57867,-0.533335 1.94134,-1.461338 l 2.42134,-6.218688 h -1.33333 l -1.26934,3.72268 h -0.0213 l -1.42934,-3.72268 h -1.41867 z" />
        <path
           id="path1419"
           style="font-style:normal;font-variant:normal;font-weight:600;font-stretch:normal;font-size:10.6667px;line-height:1.25;font-family:'Avenir Next LT Pro';-inkscape-font-specification:'Avenir Next LT Pro Semi-Bold';fill:#000000"
           d="m 825.526,-103.38134 v 7.680026 h 1.28001 v -3.242677 h 0.0213 c 0.33067,0.512002 0.98134,0.832003 1.69601,0.832003 1.55733,0 2.51734,-1.237337 2.51734,-2.730672 0,-1.51467 -1.02401,-2.68801 -2.48534,-2.68801 -0.93867,0 -1.51468,0.45867 -1.77068,0.864 h -0.032 v -0.71467 z m 4.21335,2.53868 c 0,0.8 -0.48,1.664002 -1.472,1.664002 -0.93867,0 -1.50401,-0.842672 -1.50401,-1.642672 0,-0.8 0.56534,-1.66401 1.50401,-1.66401 0.992,0 1.472,0.84267 1.472,1.64268 z" />
        <path
           id="path1421"
           style="font-style:normal;font-variant:normal;font-weight:600;font-stretch:normal;font-size:10.6667px;line-height:1.25;font-family:'Avenir Next LT Pro';-inkscape-font-specification:'Avenir Next LT Pro Semi-Bold';fill:#000000"
           d="m 835.4547,-98.261322 h 1.19467 V -101.376 c 0,-1.024 -0.448,-2.15467 -2.28267,-2.15467 -0.77867,0 -1.58934,0.27733 -2.16534,0.81067 l 0.66133,0.77867 c 0.33067,-0.33067 0.85334,-0.58667 1.39734,-0.58667 0.64,0 1.17334,0.30933 1.17334,0.93867 v 0.128 c -1.60001,0 -3.52001,0.21333 -3.52001,1.73867 0,1.19467 1.09867,1.589338 1.92,1.589338 0.72534,0 1.33334,-0.330667 1.58934,-0.778669 h 0.032 z m -0.0213,-2.154678 c 0,0.810674 -0.46934,1.312009 -1.34401,1.312009 -0.43733,0 -0.896,-0.149334 -0.896,-0.640002 0,-0.757337 1.14134,-0.853337 1.95201,-0.853337 h 0.288 z" />
        <path
           id="path1423"
           style="font-style:normal;font-variant:normal;font-weight:600;font-stretch:normal;font-size:10.6667px;line-height:1.25;font-family:'Avenir Next LT Pro';-inkscape-font-specification:'Avenir Next LT Pro Semi-Bold';fill:#000000"
           d="m 841.78839,-102.752 c -0.416,-0.52267 -1.184,-0.77867 -1.92001,-0.77867 -1.01333,0 -2.03734,0.49067 -2.03734,1.632 0,0.96001 0.75734,1.26934 1.51467,1.45067 0.77867,0.18134 1.17334,0.30934 1.17334,0.736007 0,0.458668 -0.448,0.608002 -0.82133,0.608002 -0.55467,0 -1.03467,-0.277335 -1.31201,-0.640002 l -0.84267,0.789335 c 0.49067,0.544002 1.31201,0.84267 2.10134,0.84267 1.12001,0 2.13334,-0.458668 2.13334,-1.706672 0,-1.00267 -0.896,-1.344 -1.65334,-1.52534 -0.71467,-0.17067 -1.10933,-0.27733 -1.10933,-0.672 0,-0.40534 0.416,-0.55467 0.82133,-0.55467 0.46934,0 0.89601,0.256 1.12001,0.55467 z" />
        <path
           id="path1425"
           style="font-style:normal;font-variant:normal;font-weight:600;font-stretch:normal;font-size:10.6667px;line-height:1.25;font-family:'Avenir Next LT Pro';-inkscape-font-specification:'Avenir Next LT Pro Semi-Bold';fill:#000000"
           d="m 846.51757,-102.752 c -0.416,-0.52267 -1.184,-0.77867 -1.92001,-0.77867 -1.01333,0 -2.03734,0.49067 -2.03734,1.632 0,0.96001 0.75734,1.26934 1.51468,1.45067 0.77866,0.18134 1.17333,0.30934 1.17333,0.736007 0,0.458668 -0.448,0.608002 -0.82133,0.608002 -0.55467,0 -1.03467,-0.277335 -1.31201,-0.640002 l -0.84267,0.789335 c 0.49067,0.544002 1.31201,0.84267 2.10134,0.84267 1.12001,0 2.13334,-0.458668 2.13334,-1.706672 0,-1.00267 -0.896,-1.344 -1.65334,-1.52534 -0.71466,-0.17067 -1.10933,-0.27733 -1.10933,-0.672 0,-0.40534 0.416,-0.55467 0.82133,-0.55467 0.46934,0 0.89601,0.256 1.12001,0.55467 z" />
      </g>
    </g>
  </g>
</svg>
