<?xml version="1.0" encoding="UTF-8" standalone="no"?>
<svg
   xmlns:dc="http://purl.org/dc/elements/1.1/"
   xmlns:cc="http://creativecommons.org/ns#"
   xmlns:rdf="http://www.w3.org/1999/02/22-rdf-syntax-ns#"
   xmlns:svg="http://www.w3.org/2000/svg"
   xmlns="http://www.w3.org/2000/svg"
   style="enable-background:new"
   version="1.1"
   id="svg2"
   height="218"
   width="778">
  <defs
     id="defs4" />
  <metadata
     id="metadata7">
    <rdf:RDF>
      <cc:Work
         rdf:about="">
        <dc:format>image/svg+xml</dc:format>
        <dc:type
           rdf:resource="http://purl.org/dc/dcmitype/StillImage" />
        <dc:title />
        <cc:license
           rdf:resource="http://creativecommons.org/licenses/by-sa/4.0/" />
      </cc:Work>
      <cc:License
         rdf:about="http://creativecommons.org/licenses/by-sa/4.0/">
        <cc:permits
           rdf:resource="http://creativecommons.org/ns#Reproduction" />
        <cc:permits
           rdf:resource="http://creativecommons.org/ns#Distribution" />
        <cc:requires
           rdf:resource="http://creativecommons.org/ns#Notice" />
        <cc:requires
           rdf:resource="http://creativecommons.org/ns#Attribution" />
        <cc:permits
           rdf:resource="http://creativecommons.org/ns#DerivativeWorks" />
        <cc:requires
           rdf:resource="http://creativecommons.org/ns#ShareAlike" />
      </cc:License>
    </rdf:RDF>
  </metadata>
  <g
     style="display:inline"
     id="layer6">
    <g
       transform="translate(20,172)"
       id="export-button-curve-smooth-branching-over">
      <path
         d="m 810.5,-111.5 h 39 c 5.54,0 10,4.237 10,9.5 0,5.263001 -4.46,9.500002 -10,9.500002 h -39 c -5.54,0 -10,-4.237001 -10,-9.500002 0,-5.263 4.46,-9.5 10,-9.5 z"
         style="color:#000000;clip-rule:nonzero;display:inline;overflow:visible;visibility:visible;isolation:auto;mix-blend-mode:normal;color-interpolation:sRGB;color-interpolation-filters:linearRGB;solid-color:#000000;solid-opacity:1;fill:#a04000;fill-opacity:1;fill-rule:nonzero;stroke:#000000;stroke-width:0.999999;stroke-linecap:round;stroke-linejoin:round;stroke-miterlimit:4;stroke-dasharray:none;stroke-dashoffset:0;stroke-opacity:1;marker:none;color-rendering:auto;image-rendering:auto;shape-rendering:auto;text-rendering:auto;enable-background:accumulate"
         id="rect1909" />
      <g
         style="font-style:normal;font-variant:normal;font-weight:600;font-stretch:normal;font-size:10.6667px;line-height:0%;font-family:sans-serif;-inkscape-font-specification:'Avenir Next LT Pro Semi-Bold';text-align:center;letter-spacing:0px;word-spacing:0px;text-anchor:middle;display:inline;fill:#000000;fill-opacity:1;stroke:none;enable-background:new"
         id="text1913"
         aria-label="Log">
        <path
           id="path31132"
           style="font-style:normal;font-variant:normal;font-weight:600;font-stretch:normal;font-size:10.6667px;line-height:1.25;font-family:'Avenir Next LT Pro';-inkscape-font-specification:'Avenir Next LT Pro Semi-Bold';fill:#000000"
           d="m 821.54391,-98.261322 h 4.55468 v -1.19467 h -3.21068 v -6.357358 h -1.344 z" />
        <path
           id="path31134"
           style="font-style:normal;font-variant:normal;font-weight:600;font-stretch:normal;font-size:10.6667px;line-height:1.25;font-family:'Avenir Next LT Pro';-inkscape-font-specification:'Avenir Next LT Pro Semi-Bold';fill:#000000"
           d="m 826.45209,-100.84266 c 0,1.610668 1.23734,2.730672 2.78401,2.730672 1.54667,0 2.78401,-1.120004 2.78401,-2.730672 0,-1.61068 -1.23734,-2.68801 -2.78401,-2.68801 -1.54667,0 -2.78401,1.07733 -2.78401,2.68801 z m 1.30134,0 c 0,-0.80001 0.46933,-1.64268 1.48267,-1.64268 1.01334,0 1.48267,0.84267 1.48267,1.64268 0,0.8 -0.46933,1.664002 -1.48267,1.664002 -1.01334,0 -1.48267,-0.864002 -1.48267,-1.664002 z" />
        <path
           id="path31136"
           style="font-style:normal;font-variant:normal;font-weight:600;font-stretch:normal;font-size:10.6667px;line-height:1.25;font-family:'Avenir Next LT Pro';-inkscape-font-specification:'Avenir Next LT Pro Semi-Bold';fill:#000000"
           d="m 837.24012,-103.38134 v 0.768 h -0.0213 c -0.37333,-0.61866 -1.04534,-0.91733 -1.76001,-0.91733 -1.54667,0 -2.50667,1.20534 -2.50667,2.68801 0,1.450668 0.992,2.666672 2.52801,2.666672 0.704,0 1.30134,-0.266668 1.67467,-0.768003 h 0.0213 v 0.373335 c 0,1.013336 -0.384,1.760005 -1.62133,1.760005 -0.64001,0 -1.30134,-0.256001 -1.79201,-0.725335 l -0.736,0.992003 c 0.66133,0.544001 1.70667,0.842669 2.53867,0.842669 1.99467,0 2.89068,-1.173337 2.89068,-3.018676 v -4.66135 z m -1.51467,0.896 c 0.92801,0 1.51467,0.74667 1.51467,1.63201 0,0.853336 -0.576,1.621338 -1.52533,1.621338 -0.91734,0 -1.46134,-0.810668 -1.46134,-1.621338 0,-0.90667 0.544,-1.63201 1.472,-1.63201 z" />
      </g>
    </g>
  </g>
</svg>
