<?xml version="1.0" encoding="UTF-8" standalone="no"?>
<svg
   xmlns:dc="http://purl.org/dc/elements/1.1/"
   xmlns:cc="http://creativecommons.org/ns#"
   xmlns:rdf="http://www.w3.org/1999/02/22-rdf-syntax-ns#"
   xmlns:svg="http://www.w3.org/2000/svg"
   xmlns="http://www.w3.org/2000/svg"
   xmlns:xlink="http://www.w3.org/1999/xlink"
   width="773"
   height="213"
   id="svg2"
   version="1.1"
   style="enable-background:new">
  <defs
     id="defs4">
    <pattern
       xlink:href="#pattern1836"
       id="pattern2556"
       patternTransform="matrix(0.78764252,1.364237,-9.5105949,5.4909442,859.00006,-122.99997)" />
    <pattern
       xlink:href="#pattern6575"
       id="pattern1836"
       patternTransform="matrix(0.78764252,1.364237,-9.5105949,5.4909442,930.00001,-122.99997)" />
    <pattern
       xlink:href="#pattern11850"
       id="pattern6575"
       patternTransform="matrix(0.78764252,1.364237,-9.5105949,5.4909442,930.00001,-122.99997)" />
    <pattern
       xlink:href="#pattern6644"
       id="pattern11850"
       patternTransform="matrix(0.78764252,1.364237,-9.5105949,5.4909442,130.00001,147.00003)" />
    <pattern
       xlink:href="#pattern6132"
       id="pattern6644"
       patternTransform="matrix(0.78764252,1.364237,-9.5105949,5.4909442,930.00001,-122.99997)" />
    <pattern
       xlink:href="#pattern5618"
       id="pattern6132"
       patternTransform="matrix(0.78764252,1.364237,-9.5105949,5.4909442,130.00001,147.00003)" />
    <pattern
       xlink:href="#pattern25706"
       id="pattern5618"
       patternTransform="matrix(0.78764252,1.364237,-9.5105949,5.4909442,130.00001,147.00003)" />
    <pattern
       xlink:href="#pattern20948"
       id="pattern25706"
       patternTransform="matrix(0.78764255,1.364237,-9.5105953,5.4909442,130.00002,147.00003)" />
    <pattern
       xlink:href="#pattern20628"
       id="pattern20948"
       patternTransform="matrix(0.78764255,1.364237,-9.5105953,5.4909442,930.00002,-122.99997)" />
    <pattern
       xlink:href="#pattern6948"
       id="pattern20628"
       patternTransform="matrix(0.78764254,1.364237,-9.5105951,5.4909442,290.00001,147.00003)" />
    <pattern
       xlink:href="#pattern13272"
       id="pattern6948"
       patternTransform="matrix(0.78764254,1.364237,-9.5105951,5.4909442,290.00001,147.00003)" />
    <pattern
       xlink:href="#pattern13037"
       id="pattern13272"
       patternTransform="matrix(0.78764254,1.364237,-9.5105951,5.4909442,290.00001,147.00003)" />
    <pattern
       xlink:href="#pattern9313-9-6"
       id="pattern13037"
       patternTransform="matrix(0.78764254,1.364237,-9.5105951,5.4909442,930.00001,-122.99997)" />
    <pattern
       patternTransform="matrix(0.78764255,1.364237,-9.5105957,5.4909443,389.99998,-313.99998)"
       id="pattern9313-9-6"
       xlink:href="#Strips1_1-7-9" />
    <pattern
       patternUnits="userSpaceOnUse"
       width="2"
       height="1"
       patternTransform="translate(0,0) scale(10,10)"
       id="Strips1_1-7-9">
      <rect
         style="fill:black;stroke:none"
         x="0"
         y="-0.5"
         width="1"
         height="2"
         id="rect8592-4-3" />
    </pattern>
  </defs>
  <metadata
     id="metadata7">
    <rdf:RDF>
      <cc:Work
         rdf:about="">
        <dc:format>image/svg+xml</dc:format>
        <dc:type
           rdf:resource="http://purl.org/dc/dcmitype/StillImage" />
        <dc:title />
        <cc:license
           rdf:resource="http://creativecommons.org/licenses/by-sa/4.0/" />
      </cc:Work>
      <cc:License
         rdf:about="http://creativecommons.org/licenses/by-sa/4.0/">
        <cc:permits
           rdf:resource="http://creativecommons.org/ns#Reproduction" />
        <cc:permits
           rdf:resource="http://creativecommons.org/ns#Distribution" />
        <cc:requires
           rdf:resource="http://creativecommons.org/ns#Notice" />
        <cc:requires
           rdf:resource="http://creativecommons.org/ns#Attribution" />
        <cc:permits
           rdf:resource="http://creativecommons.org/ns#DerivativeWorks" />
        <cc:requires
           rdf:resource="http://creativecommons.org/ns#ShareAlike" />
      </cc:License>
    </rdf:RDF>
  </metadata>
  <g
     id="layer6"
     style="display:inline">
    <g
       transform="translate(20,82)"
       id="export-button-curve-smooth-decoupled-over">
      <path
         d="m 810.5,-111.5 h 39 c 5.54,0 10,4.237 10,9.5 0,5.263001 -4.46,9.500002 -10,9.500002 h -39 c -5.54,0 -10,-4.237001 -10,-9.500002 0,-5.263 4.46,-9.5 10,-9.5 z"
         style="color:#000000;clip-rule:nonzero;display:inline;overflow:visible;visibility:visible;isolation:auto;mix-blend-mode:normal;color-interpolation:sRGB;color-interpolation-filters:linearRGB;solid-color:#000000;solid-opacity:1;fill:#a04000;fill-opacity:1;fill-rule:nonzero;stroke:#000000;stroke-width:0.999999;stroke-linecap:round;stroke-linejoin:round;stroke-miterlimit:4;stroke-dasharray:none;stroke-dashoffset:0;stroke-opacity:1;marker:none;color-rendering:auto;image-rendering:auto;shape-rendering:auto;text-rendering:auto;enable-background:accumulate"
         id="rect1885" />
      <g
         style="font-style:normal;font-variant:normal;font-weight:600;font-stretch:normal;font-size:10.6667px;line-height:0%;font-family:sans-serif;-inkscape-font-specification:'Avenir Next LT Pro Semi-Bold';text-align:center;letter-spacing:0px;word-spacing:0px;text-anchor:middle;display:inline;fill:#000000;fill-opacity:1;stroke:none;enable-background:new"
         id="text1889"
         aria-label="Smooth">
        <path
           id="path947"
           style="font-style:normal;font-variant:normal;font-weight:600;font-stretch:normal;font-size:10.6667px;line-height:1.25;font-family:'Avenir Next LT Pro';-inkscape-font-specification:'Avenir Next LT Pro Semi-Bold';fill:#000000"
           d="m 815.92989,-105.19468 c -0.576,-0.544 -1.44001,-0.81067 -2.19734,-0.81067 -1.36534,0 -2.76268,0.68267 -2.76268,2.21868 0,1.408 0.99201,1.856 1.90934,2.144 0.94934,0.29867 1.73868,0.52267 1.73868,1.31201 0,0.810667 -0.73601,1.120002 -1.36534,1.120002 -0.59734,0 -1.28001,-0.320001 -1.65334,-0.832002 l -0.96,0.896002 c 0.59733,0.704002 1.61067,1.077337 2.592,1.077337 1.48268,0 2.75201,-0.789336 2.75201,-2.410679 0,-1.48267 -1.23733,-1.90934 -2.208,-2.208 -0.85334,-0.26667 -1.44001,-0.46934 -1.44001,-1.16267 0,-0.73601 0.71467,-1.03467 1.33334,-1.03467 0.53333,0 1.09867,0.27733 1.38667,0.65067 z" />
        <path
           id="path949"
           style="font-style:normal;font-variant:normal;font-weight:600;font-stretch:normal;font-size:10.6667px;line-height:1.25;font-family:'Avenir Next LT Pro';-inkscape-font-specification:'Avenir Next LT Pro Semi-Bold';fill:#000000"
           d="m 823.37758,-103.53067 c -0.768,0 -1.344,0.352 -1.68534,0.97067 -0.288,-0.576 -0.81067,-0.97067 -1.6,-0.97067 -0.82134,0 -1.36534,0.46933 -1.58934,0.97067 h -0.0213 v -0.82134 h -1.216 v 5.120018 h 1.28 v -2.816008 c 0,-0.68267 0.35201,-1.38667 1.12001,-1.38667 0.65067,0 0.94933,0.48 0.94933,1.10933 v 3.093348 h 1.28001 V -101.056 c 0,-0.66133 0.33067,-1.408 1.13067,-1.408 0.82133,0 0.96,0.75733 0.96,1.36534 v 2.837338 h 1.28001 v -3.200008 c 0,-1.04534 -0.55467,-2.06934 -1.88801,-2.06934 z" />
        <path
           id="path951"
           style="font-style:normal;font-variant:normal;font-weight:600;font-stretch:normal;font-size:10.6667px;line-height:1.25;font-family:'Avenir Next LT Pro';-inkscape-font-specification:'Avenir Next LT Pro Semi-Bold';fill:#000000"
           d="m 826.46692,-100.84266 c 0,1.610668 1.23734,2.730672 2.78401,2.730672 1.54667,0 2.78401,-1.120004 2.78401,-2.730672 0,-1.61068 -1.23734,-2.68801 -2.78401,-2.68801 -1.54667,0 -2.78401,1.07733 -2.78401,2.68801 z m 1.30134,0 c 0,-0.80001 0.46934,-1.64268 1.48267,-1.64268 1.01334,0 1.48267,0.84267 1.48267,1.64268 0,0.8 -0.46933,1.664002 -1.48267,1.664002 -1.01333,0 -1.48267,-0.864002 -1.48267,-1.664002 z" />
        <path
           id="path953"
           style="font-style:normal;font-variant:normal;font-weight:600;font-stretch:normal;font-size:10.6667px;line-height:1.25;font-family:'Avenir Next LT Pro';-inkscape-font-specification:'Avenir Next LT Pro Semi-Bold';fill:#000000"
           d="m 832.96694,-100.84266 c 0,1.610668 1.23734,2.730672 2.78401,2.730672 1.54667,0 2.78401,-1.120004 2.78401,-2.730672 0,-1.61068 -1.23734,-2.68801 -2.78401,-2.68801 -1.54667,0 -2.78401,1.07733 -2.78401,2.68801 z m 1.30134,0 c 0,-0.80001 0.46933,-1.64268 1.48267,-1.64268 1.01334,0 1.48267,0.84267 1.48267,1.64268 0,0.8 -0.46933,1.664002 -1.48267,1.664002 -1.01334,0 -1.48267,-0.864002 -1.48267,-1.664002 z" />
        <path
           id="path955"
           style="font-style:normal;font-variant:normal;font-weight:600;font-stretch:normal;font-size:10.6667px;line-height:1.25;font-family:'Avenir Next LT Pro';-inkscape-font-specification:'Avenir Next LT Pro Semi-Bold';fill:#000000"
           d="m 839.92563,-102.35733 v 2.389336 c 0,0.981336 0.30934,1.813339 1.66401,1.813339 0.288,0 0.62933,-0.05333 0.85333,-0.138667 l -0.0427,-1.00267 c -0.14934,0.07467 -0.37334,0.106667 -0.54401,0.106667 -0.56533,0 -0.672,-0.330668 -0.672,-0.789336 v -2.378669 h 1.28001 v -1.02401 h -1.28001 v -1.48267 h -1.25867 v 1.48267 h -0.896 v 1.02401 z" />
        <path
           id="path957"
           style="font-style:normal;font-variant:normal;font-weight:600;font-stretch:normal;font-size:10.6667px;line-height:1.25;font-family:'Avenir Next LT Pro';-inkscape-font-specification:'Avenir Next LT Pro Semi-Bold';fill:#000000"
           d="m 846.23865,-103.53067 c -0.75733,0 -1.32267,0.43733 -1.52534,0.864 h -0.0213 v -3.65868 h -1.28 v 8.064028 h 1.28 V -101.056 c 0,-0.68267 0.39467,-1.376 1.20534,-1.376 0.82133,0 0.94933,0.74667 0.94933,1.35467 v 2.816008 h 1.28001 v -3.200008 c 0,-1.04534 -0.55467,-2.06934 -1.88801,-2.06934 z" />
      </g>
    </g>
  </g>
</svg>
