<?xml version="1.0" encoding="UTF-8" standalone="no"?>
<svg
   xmlns:dc="http://purl.org/dc/elements/1.1/"
   xmlns:cc="http://creativecommons.org/ns#"
   xmlns:rdf="http://www.w3.org/1999/02/22-rdf-syntax-ns#"
   xmlns:svg="http://www.w3.org/2000/svg"
   xmlns="http://www.w3.org/2000/svg"
   width="773"
   height="213"
   id="svg2"
   version="1.1"
   style="enable-background:new">
  <defs
     id="defs4" />
  <metadata
     id="metadata7">
    <rdf:RDF>
      <cc:Work
         rdf:about="">
        <dc:format>image/svg+xml</dc:format>
        <dc:type
           rdf:resource="http://purl.org/dc/dcmitype/StillImage" />
        <dc:title />
        <cc:license
           rdf:resource="http://creativecommons.org/licenses/by-sa/4.0/" />
      </cc:Work>
      <cc:License
         rdf:about="http://creativecommons.org/licenses/by-sa/4.0/">
        <cc:permits
           rdf:resource="http://creativecommons.org/ns#Reproduction" />
        <cc:permits
           rdf:resource="http://creativecommons.org/ns#Distribution" />
        <cc:requires
           rdf:resource="http://creativecommons.org/ns#Notice" />
        <cc:requires
           rdf:resource="http://creativecommons.org/ns#Attribution" />
        <cc:permits
           rdf:resource="http://creativecommons.org/ns#DerivativeWorks" />
        <cc:requires
           rdf:resource="http://creativecommons.org/ns#ShareAlike" />
      </cc:License>
    </rdf:RDF>
  </metadata>
  <g
     id="layer6"
     style="display:inline">
    <g
       id="export-button-design-feedback-over"
       transform="translate(20,242)">
      <path
         d="m 810.5,-111.5 h 39 c 5.54,0 10,4.237 10,9.5 0,5.263001 -4.46,9.500002 -10,9.500002 h -39 c -5.54,0 -10,-4.237001 -10,-9.500002 0,-5.263 4.46,-9.5 10,-9.5 z"
         style="color:#000000;clip-rule:nonzero;display:inline;overflow:visible;visibility:visible;isolation:auto;mix-blend-mode:normal;color-interpolation:sRGB;color-interpolation-filters:linearRGB;solid-color:#000000;solid-opacity:1;fill:#a0a000;fill-opacity:1;fill-rule:nonzero;stroke:#000000;stroke-width:0.999999;stroke-linecap:round;stroke-linejoin:round;stroke-miterlimit:4;stroke-dasharray:none;stroke-dashoffset:0;stroke-opacity:1;marker:none;color-rendering:auto;image-rendering:auto;shape-rendering:auto;text-rendering:auto;enable-background:accumulate"
         id="rect1973" />
      <g
         style="font-style:normal;font-variant:normal;font-weight:600;font-stretch:normal;font-size:10.6667px;line-height:0%;font-family:sans-serif;-inkscape-font-specification:'Avenir Next LT Pro Semi-Bold';text-align:center;letter-spacing:0px;word-spacing:0px;text-anchor:middle;display:inline;fill:#000000;fill-opacity:1;stroke:none;enable-background:new"
         id="text1977"
         aria-label="F. Back">
        <path
           id="path44820"
           style="font-style:normal;font-variant:normal;font-weight:600;font-stretch:normal;font-size:10.6667px;line-height:1.25;font-family:'Avenir Next LT Pro';-inkscape-font-specification:'Avenir Next LT Pro Semi-Bold';fill:#000000"
           d="m 813.41018,-98.261322 h 1.344 V -101.44 h 3.32801 v -1.13067 h -3.32801 v -2.06934 h 3.53068 v -1.17334 h -4.87468 z" />
        <path
           id="path44822"
           style="font-style:normal;font-variant:normal;font-weight:600;font-stretch:normal;font-size:10.6667px;line-height:1.25;font-family:'Avenir Next LT Pro';-inkscape-font-specification:'Avenir Next LT Pro Semi-Bold';fill:#000000"
           d="m 818.19486,-99.007991 c 0,0.458668 0.40533,0.810669 0.85333,0.810669 0.46934,0 0.85334,-0.373334 0.85334,-0.832002 0,-0.458669 -0.39467,-0.81067 -0.85334,-0.81067 -0.46933,0 -0.85333,0.373335 -0.85333,0.832003 z" />
        <path
           id="path44824"
           style="font-style:normal;font-variant:normal;font-weight:600;font-stretch:normal;font-size:10.6667px;line-height:1.25;font-family:'Avenir Next LT Pro';-inkscape-font-specification:'Avenir Next LT Pro Semi-Bold';fill:#000000"
           d="m 823.61854,-98.261322 h 2.72001 c 1.42934,0 2.85868,-0.554668 2.85868,-2.197338 0,-1.01334 -0.68267,-1.65334 -1.63201,-1.78134 v -0.0213 c 0.77867,-0.23467 1.312,-0.80001 1.312,-1.65334 0,-1.37601 -1.17333,-1.89868 -2.31467,-1.89868 h -2.94401 z m 1.34401,-6.442688 h 1.07733 c 1.01334,0 1.49334,0.26667 1.49334,0.93867 0,0.65067 -0.48,1.024 -1.376,1.024 h -1.19467 z m 0,3.11468 h 1.25867 c 1.088,0 1.632,0.27733 1.632,1.06667 0,0.992001 -0.992,1.130668 -1.68534,1.130668 h -1.20533 z" />
        <path
           id="path44826"
           style="font-style:normal;font-variant:normal;font-weight:600;font-stretch:normal;font-size:10.6667px;line-height:1.25;font-family:'Avenir Next LT Pro';-inkscape-font-specification:'Avenir Next LT Pro Semi-Bold';fill:#000000"
           d="m 833.62907,-98.261322 h 1.19467 V -101.376 c 0,-1.024 -0.448,-2.15467 -2.28267,-2.15467 -0.77867,0 -1.58934,0.27733 -2.16534,0.81067 l 0.66134,0.77867 c 0.33066,-0.33067 0.85333,-0.58667 1.39733,-0.58667 0.64001,0 1.17334,0.30933 1.17334,0.93867 v 0.128 c -1.6,0 -3.52001,0.21333 -3.52001,1.73867 0,1.19467 1.09867,1.589338 1.92001,1.589338 0.72533,0 1.33333,-0.330667 1.58933,-0.778669 h 0.032 z m -0.0213,-2.154678 c 0,0.810674 -0.46933,1.312009 -1.344,1.312009 -0.43734,0 -0.89601,-0.149334 -0.89601,-0.640002 0,-0.757337 1.14134,-0.853337 1.95201,-0.853337 h 0.288 z" />
        <path
           id="path44828"
           style="font-style:normal;font-variant:normal;font-weight:600;font-stretch:normal;font-size:10.6667px;line-height:1.25;font-family:'Avenir Next LT Pro';-inkscape-font-specification:'Avenir Next LT Pro Semi-Bold';fill:#000000"
           d="m 840.69876,-102.73067 c -0.40533,-0.50133 -1.184,-0.8 -1.93067,-0.8 -1.50401,0 -2.74134,1.04533 -2.74134,2.70934 0,1.706672 1.25867,2.709342 2.77334,2.709342 0.75733,0 1.46134,-0.256001 1.888,-0.714669 l -0.8,-0.810669 c -0.24533,0.298667 -0.68267,0.458668 -1.07733,0.458668 -0.97067,0 -1.45068,-0.842672 -1.45068,-1.642672 0,-0.8 0.46934,-1.64267 1.40801,-1.64267 0.416,0 0.85333,0.21333 1.056,0.50133 z" />
        <path
           id="path44830"
           style="font-style:normal;font-variant:normal;font-weight:600;font-stretch:normal;font-size:10.6667px;line-height:1.25;font-family:'Avenir Next LT Pro';-inkscape-font-specification:'Avenir Next LT Pro Semi-Bold';fill:#000000"
           d="m 841.5551,-98.261322 h 1.28 v -2.624008 h 0.032 l 2.02667,2.624008 h 1.69601 l -2.35734,-2.805338 2.21867,-2.31468 h -1.64267 l -1.94134,2.15468 h -0.032 v -5.09869 h -1.28 z" />
      </g>
    </g>
  </g>
</svg>
