<?xml version="1.0" encoding="UTF-8" standalone="no"?>
<svg
   xmlns:dc="http://purl.org/dc/elements/1.1/"
   xmlns:cc="http://creativecommons.org/ns#"
   xmlns:rdf="http://www.w3.org/1999/02/22-rdf-syntax-ns#"
   xmlns:svg="http://www.w3.org/2000/svg"
   xmlns="http://www.w3.org/2000/svg"
   style="enable-background:new"
   version="1.1"
   id="svg2"
   height="224"
   width="788">
  <defs
     id="defs4" />
  <metadata
     id="metadata7">
    <rdf:RDF>
      <cc:Work
         rdf:about="">
        <dc:format>image/svg+xml</dc:format>
        <dc:type
           rdf:resource="http://purl.org/dc/dcmitype/StillImage" />
        <dc:title />
        <cc:license
           rdf:resource="http://creativecommons.org/licenses/by-sa/4.0/" />
      </cc:Work>
      <cc:License
         rdf:about="http://creativecommons.org/licenses/by-sa/4.0/">
        <cc:permits
           rdf:resource="http://creativecommons.org/ns#Reproduction" />
        <cc:permits
           rdf:resource="http://creativecommons.org/ns#Distribution" />
        <cc:requires
           rdf:resource="http://creativecommons.org/ns#Notice" />
        <cc:requires
           rdf:resource="http://creativecommons.org/ns#Attribution" />
        <cc:permits
           rdf:resource="http://creativecommons.org/ns#DerivativeWorks" />
        <cc:requires
           rdf:resource="http://creativecommons.org/ns#ShareAlike" />
      </cc:License>
    </rdf:RDF>
  </metadata>
  <g
     style="display:inline"
     id="layer6">
    <g
       id="export-button-knee-medium-over"
       transform="translate(20,342)">
      <path
         d="m 810.5,-111.5 h 39 c 5.54,0 10,4.237 10,9.5 0,5.263001 -4.46,9.500002 -10,9.500002 h -39 c -5.54,0 -10,-4.237001 -10,-9.500002 0,-5.263 4.46,-9.5 10,-9.5 z"
         style="color:#000000;clip-rule:nonzero;display:inline;overflow:visible;visibility:visible;isolation:auto;mix-blend-mode:normal;color-interpolation:sRGB;color-interpolation-filters:linearRGB;solid-color:#000000;solid-opacity:1;fill:#00a000;fill-opacity:1;fill-rule:nonzero;stroke:#000000;stroke-width:0.999999;stroke-linecap:round;stroke-linejoin:round;stroke-miterlimit:4;stroke-dasharray:none;stroke-dashoffset:0;stroke-opacity:1;marker:none;color-rendering:auto;image-rendering:auto;shape-rendering:auto;text-rendering:auto;enable-background:accumulate"
         id="rect2240" />
      <g
         style="font-style:normal;font-variant:normal;font-weight:600;font-stretch:normal;font-size:10.6667px;line-height:0%;font-family:sans-serif;-inkscape-font-specification:'Avenir Next LT Pro Semi-Bold';text-align:center;letter-spacing:0px;word-spacing:0px;text-anchor:middle;display:inline;fill:#000000;fill-opacity:1;stroke:none;enable-background:new"
         id="text2244"
         aria-label="Medium">
        <path
           id="path61340"
           style="font-style:normal;font-variant:normal;font-weight:600;font-stretch:normal;font-size:10.6667px;line-height:1.25;font-family:'Avenir Next LT Pro';-inkscape-font-specification:'Avenir Next LT Pro Semi-Bold';fill:#000000"
           d="m 810.14653,-98.261322 h 1.28001 v -6.069348 h 0.0213 l 2.26134,6.069348 h 0.93867 l 2.29334,-6.069348 h 0.0213 v 6.069348 h 1.33334 v -7.552028 h -2.112 l -1.94134,5.36535 h -0.032 l -1.96268,-5.36535 h -2.10134 z" />
        <path
           id="path61342"
           style="font-style:normal;font-variant:normal;font-weight:600;font-stretch:normal;font-size:10.6667px;line-height:1.25;font-family:'Avenir Next LT Pro';-inkscape-font-specification:'Avenir Next LT Pro Semi-Bold';fill:#000000"
           d="m 820.8764,-101.33333 c 0.0533,-0.71467 0.66134,-1.23734 1.41867,-1.23734 0.832,0 1.20534,0.576 1.20534,1.23734 z m 3.90401,0.576 c 0,-1.84534 -1.04533,-2.77334 -2.47467,-2.77334 -1.54667,0 -2.70934,1.088 -2.70934,2.74134 0,1.664005 1.17333,2.677342 2.75201,2.677342 0.97067,0 1.696,-0.341335 2.19734,-1.024003 l -0.85334,-0.682669 c -0.288,0.405334 -0.71467,0.661335 -1.35467,0.661335 -0.74667,0 -1.40801,-0.533335 -1.46134,-1.258675 h 3.89335 c 0.0107,-0.11733 0.0107,-0.224 0.0107,-0.34133 z" />
        <path
           id="path61344"
           style="font-style:normal;font-variant:normal;font-weight:600;font-stretch:normal;font-size:10.6667px;line-height:1.25;font-family:'Avenir Next LT Pro';-inkscape-font-specification:'Avenir Next LT Pro Semi-Bold';fill:#000000"
           d="m 831.22543,-106.32535 h -1.28 v 3.59468 h -0.032 c -0.26667,-0.33067 -0.77867,-0.8 -1.71734,-0.8 -1.46134,0 -2.48534,1.17334 -2.48534,2.68801 0,1.493335 0.96,2.730672 2.51734,2.730672 0.71467,0 1.40801,-0.330668 1.76001,-0.917336 h 0.0213 v 0.768002 h 1.216 z m -4.21334,5.48269 c 0,-0.80001 0.48,-1.64268 1.472,-1.64268 0.93867,0 1.50401,0.86401 1.50401,1.66401 0,0.8 -0.56534,1.642672 -1.50401,1.642672 -0.992,0 -1.472,-0.864002 -1.472,-1.664002 z" />
        <path
           id="path61346"
           style="font-style:normal;font-variant:normal;font-weight:600;font-stretch:normal;font-size:10.6667px;line-height:1.25;font-family:'Avenir Next LT Pro';-inkscape-font-specification:'Avenir Next LT Pro Semi-Bold';fill:#000000"
           d="m 832.81227,-98.261322 h 1.28001 v -5.120018 h -1.28001 z m -0.18133,-6.858688 c 0,0.40533 0.34133,0.768 0.81067,0.768 0.46933,0 0.832,-0.33067 0.832,-0.768 0,-0.43734 -0.36267,-0.768 -0.832,-0.768 -0.46934,0 -0.81067,0.36267 -0.81067,0.768 z" />
        <path
           id="path61348"
           style="font-style:normal;font-variant:normal;font-weight:600;font-stretch:normal;font-size:10.6667px;line-height:1.25;font-family:'Avenir Next LT Pro';-inkscape-font-specification:'Avenir Next LT Pro Semi-Bold';fill:#000000"
           d="m 840.31713,-103.38134 h -1.28 v 2.81601 c 0,0.68267 -0.38401,1.386672 -1.19467,1.386672 -0.82134,0 -0.96001,-0.757336 -0.96001,-1.365342 v -2.83734 h -1.28 v 3.20001 c 0,1.045339 0.55467,2.069342 1.888,2.069342 0.75734,0 1.36534,-0.458668 1.58934,-0.97067 h 0.0213 v 0.821336 h 1.216 z" />
        <path
           id="path61350"
           style="font-style:normal;font-variant:normal;font-weight:600;font-stretch:normal;font-size:10.6667px;line-height:1.25;font-family:'Avenir Next LT Pro';-inkscape-font-specification:'Avenir Next LT Pro Semi-Bold';fill:#000000"
           d="m 847.96549,-103.53067 c -0.76801,0 -1.34401,0.352 -1.68534,0.97067 -0.288,-0.576 -0.81067,-0.97067 -1.60001,-0.97067 -0.82133,0 -1.36533,0.46933 -1.58933,0.97067 h -0.0213 v -0.82134 h -1.216 v 5.120018 h 1.28 v -2.816008 c 0,-0.68267 0.352,-1.38667 1.12001,-1.38667 0.65066,0 0.94933,0.48 0.94933,1.10933 v 3.093348 h 1.28001 V -101.056 c 0,-0.66133 0.33066,-1.408 1.13067,-1.408 0.82133,0 0.96,0.75733 0.96,1.36534 v 2.837338 h 1.28 v -3.200008 c 0,-1.04534 -0.55467,-2.06934 -1.888,-2.06934 z" />
      </g>
    </g>
  </g>
</svg>
