<?xml version="1.0" encoding="UTF-8" standalone="no"?>
<svg
   xmlns:dc="http://purl.org/dc/elements/1.1/"
   xmlns:cc="http://creativecommons.org/ns#"
   xmlns:rdf="http://www.w3.org/1999/02/22-rdf-syntax-ns#"
   xmlns:svg="http://www.w3.org/2000/svg"
   xmlns="http://www.w3.org/2000/svg"
   style="enable-background:new"
   version="1.1"
   id="svg2"
   height="213"
   width="773">
  <defs
     id="defs4" />
  <metadata
     id="metadata7">
    <rdf:RDF>
      <cc:Work
         rdf:about="">
        <dc:format>image/svg+xml</dc:format>
        <dc:type
           rdf:resource="http://purl.org/dc/dcmitype/StillImage" />
        <dc:title />
        <cc:license
           rdf:resource="http://creativecommons.org/licenses/by-sa/4.0/" />
      </cc:Work>
      <cc:License
         rdf:about="http://creativecommons.org/licenses/by-sa/4.0/">
        <cc:permits
           rdf:resource="http://creativecommons.org/ns#Reproduction" />
        <cc:permits
           rdf:resource="http://creativecommons.org/ns#Distribution" />
        <cc:requires
           rdf:resource="http://creativecommons.org/ns#Notice" />
        <cc:requires
           rdf:resource="http://creativecommons.org/ns#Attribution" />
        <cc:permits
           rdf:resource="http://creativecommons.org/ns#DerivativeWorks" />
        <cc:requires
           rdf:resource="http://creativecommons.org/ns#ShareAlike" />
      </cc:License>
    </rdf:RDF>
  </metadata>
  <g
     style="display:inline"
     id="layer6">
    <g
       transform="translate(-313,187)"
       id="export-button-knee-soft-on">
      <path
         d="m 810.5,-111.5 h 39 c 5.54,0 10,4.237 10,9.5 0,5.263001 -4.46,9.500002 -10,9.500002 h -39 c -5.54,0 -10,-4.237001 -10,-9.500002 0,-5.263 4.46,-9.5 10,-9.5 z"
         style="color:#000000;clip-rule:nonzero;display:inline;overflow:visible;visibility:visible;isolation:auto;mix-blend-mode:normal;color-interpolation:sRGB;color-interpolation-filters:linearRGB;solid-color:#000000;solid-opacity:1;fill:#00ff00;fill-opacity:1;fill-rule:nonzero;stroke:#000000;stroke-width:0.999999;stroke-linecap:round;stroke-linejoin:round;stroke-miterlimit:4;stroke-dasharray:none;stroke-dashoffset:0;stroke-opacity:1;marker:none;color-rendering:auto;image-rendering:auto;shape-rendering:auto;text-rendering:auto;enable-background:accumulate"
         id="rect2080" />
      <g
         style="font-style:normal;font-variant:normal;font-weight:600;font-stretch:normal;font-size:10.6667px;line-height:0%;font-family:sans-serif;-inkscape-font-specification:'Avenir Next LT Pro Semi-Bold';text-align:center;letter-spacing:0px;word-spacing:0px;text-anchor:middle;display:inline;fill:#000000;fill-opacity:1;stroke:none;enable-background:new"
         id="text2084"
         aria-label="Soft">
        <path
           id="path67700"
           style="font-style:normal;font-variant:normal;font-weight:600;font-stretch:normal;font-size:10.6667px;line-height:1.25;font-family:'Avenir Next LT Pro';-inkscape-font-specification:'Avenir Next LT Pro Semi-Bold';fill:#000000"
           d="m 825.39867,-105.19468 c -0.576,-0.544 -1.44001,-0.81067 -2.19734,-0.81067 -1.36534,0 -2.76268,0.68267 -2.76268,2.21868 0,1.408 0.99201,1.856 1.90934,2.144 0.94934,0.29867 1.73868,0.52267 1.73868,1.31201 0,0.810667 -0.73601,1.120002 -1.36534,1.120002 -0.59734,0 -1.28001,-0.320001 -1.65334,-0.832002 l -0.96,0.896002 c 0.59733,0.704002 1.61067,1.077337 2.592,1.077337 1.48268,0 2.75201,-0.789336 2.75201,-2.410679 0,-1.48267 -1.23733,-1.90934 -2.208,-2.208 -0.85334,-0.26667 -1.44001,-0.46934 -1.44001,-1.16267 0,-0.73601 0.71467,-1.03467 1.33334,-1.03467 0.53333,0 1.09867,0.27733 1.38667,0.65067 z" />
        <path
           id="path67702"
           style="font-style:normal;font-variant:normal;font-weight:600;font-stretch:normal;font-size:10.6667px;line-height:1.25;font-family:'Avenir Next LT Pro';-inkscape-font-specification:'Avenir Next LT Pro Semi-Bold';fill:#000000"
           d="m 826.43567,-100.84266 c 0,1.610668 1.23734,2.730672 2.78401,2.730672 1.54667,0 2.78401,-1.120004 2.78401,-2.730672 0,-1.61068 -1.23734,-2.68801 -2.78401,-2.68801 -1.54667,0 -2.78401,1.07733 -2.78401,2.68801 z m 1.30134,0 c 0,-0.80001 0.46934,-1.64268 1.48267,-1.64268 1.01334,0 1.48267,0.84267 1.48267,1.64268 0,0.8 -0.46933,1.664002 -1.48267,1.664002 -1.01333,0 -1.48267,-0.864002 -1.48267,-1.664002 z" />
        <path
           id="path67704"
           style="font-style:normal;font-variant:normal;font-weight:600;font-stretch:normal;font-size:10.6667px;line-height:1.25;font-family:'Avenir Next LT Pro';-inkscape-font-specification:'Avenir Next LT Pro Semi-Bold';fill:#000000"
           d="m 833.43703,-98.261322 h 1.28 v -4.096008 h 1.18401 v -1.02401 h -1.18401 v -0.832 c 0,-0.512 0.128,-1.152 0.864,-1.152 0.18134,0 0.35201,0.032 0.49067,0.0747 l 0.0853,-1.088 c -0.192,-0.0533 -0.37334,-0.0747 -0.65067,-0.0747 -1.58934,0 -2.06934,1.08801 -2.06934,2.31468 v 0.75733 h -0.97067 v 1.02401 h 0.97067 z" />
        <path
           id="path67706"
           style="font-style:normal;font-variant:normal;font-weight:600;font-stretch:normal;font-size:10.6667px;line-height:1.25;font-family:'Avenir Next LT Pro';-inkscape-font-specification:'Avenir Next LT Pro Semi-Bold';fill:#000000"
           d="m 836.68604,-102.35733 v 2.389336 c 0,0.981336 0.30933,1.813339 1.664,1.813339 0.28801,0 0.62934,-0.05333 0.85334,-0.138667 l -0.0427,-1.00267 c -0.14933,0.07467 -0.37333,0.106667 -0.544,0.106667 -0.56533,0 -0.672,-0.330668 -0.672,-0.789336 v -2.378669 h 1.28 v -1.02401 h -1.28 v -1.48267 h -1.25867 v 1.48267 h -0.896 v 1.02401 z" />
      </g>
    </g>
  </g>
</svg>
