<?xml version="1.0" encoding="UTF-8" standalone="no"?>
<svg
   xmlns:dc="http://purl.org/dc/elements/1.1/"
   xmlns:cc="http://creativecommons.org/ns#"
   xmlns:rdf="http://www.w3.org/1999/02/22-rdf-syntax-ns#"
   xmlns:svg="http://www.w3.org/2000/svg"
   xmlns="http://www.w3.org/2000/svg"
   style="enable-background:new"
   version="1.1"
   id="svg2"
   height="224"
   width="788">
  <defs
     id="defs4" />
  <metadata
     id="metadata7">
    <rdf:RDF>
      <cc:Work
         rdf:about="">
        <dc:format>image/svg+xml</dc:format>
        <dc:type
           rdf:resource="http://purl.org/dc/dcmitype/StillImage" />
        <dc:title />
        <cc:license
           rdf:resource="http://creativecommons.org/licenses/by-sa/4.0/" />
      </cc:Work>
      <cc:License
         rdf:about="http://creativecommons.org/licenses/by-sa/4.0/">
        <cc:permits
           rdf:resource="http://creativecommons.org/ns#Reproduction" />
        <cc:permits
           rdf:resource="http://creativecommons.org/ns#Distribution" />
        <cc:requires
           rdf:resource="http://creativecommons.org/ns#Notice" />
        <cc:requires
           rdf:resource="http://creativecommons.org/ns#Attribution" />
        <cc:permits
           rdf:resource="http://creativecommons.org/ns#DerivativeWorks" />
        <cc:requires
           rdf:resource="http://creativecommons.org/ns#ShareAlike" />
      </cc:License>
    </rdf:RDF>
  </metadata>
  <g
     style="display:inline"
     id="layer6">
    <g
       transform="translate(-99,297)"
       id="export-button-reset-on">
      <path
         d="m 810.5,-111.5 h 39 c 5.54,0 10,4.237 10,9.5 0,5.263001 -4.46,9.500002 -10,9.500002 h -39 c -5.54,0 -10,-4.237001 -10,-9.500002 0,-5.263 4.46,-9.5 10,-9.5 z"
         style="color:#000000;clip-rule:nonzero;display:inline;overflow:visible;visibility:visible;isolation:auto;mix-blend-mode:normal;color-interpolation:sRGB;color-interpolation-filters:linearRGB;solid-color:#000000;solid-opacity:1;fill:#00b4ff;fill-opacity:1;fill-rule:nonzero;stroke:#000000;stroke-width:0.999999;stroke-linecap:round;stroke-linejoin:round;stroke-miterlimit:4;stroke-dasharray:none;stroke-dashoffset:0;stroke-opacity:1;marker:none;color-rendering:auto;image-rendering:auto;shape-rendering:auto;text-rendering:auto;enable-background:accumulate"
         id="rect1371" />
      <g
         style="font-style:normal;font-variant:normal;font-weight:600;font-stretch:normal;font-size:10.6667px;line-height:0%;font-family:sans-serif;-inkscape-font-specification:'Avenir Next LT Pro Semi-Bold';text-align:center;letter-spacing:0px;word-spacing:0px;text-anchor:middle;display:inline;fill:#000000;fill-opacity:1;stroke:none;enable-background:new"
         id="text1375"
         aria-label="Reset">
        <path
           id="path71436"
           style="font-style:normal;font-variant:normal;font-weight:600;font-stretch:normal;font-size:10.6667px;line-height:1.25;font-family:'Avenir Next LT Pro';-inkscape-font-specification:'Avenir Next LT Pro Semi-Bold';fill:#000000"
           d="m 816.90136,-98.261322 h 1.344 v -3.200008 h 0.98134 l 1.74934,3.200008 h 1.62133 l -2.016,-3.349348 c 1.056,-0.23466 1.728,-0.94933 1.728,-2.03734 0,-1.6 -1.36533,-2.16534 -2.78401,-2.16534 h -2.624 z m 1.344,-4.298678 v -2.12268 h 1.216 c 0.69334,0 1.50401,0.20267 1.50401,1.02401 0,0.91733 -0.864,1.09867 -1.62134,1.09867 z" />
        <path
           id="path71438"
           style="font-style:normal;font-variant:normal;font-weight:600;font-stretch:normal;font-size:10.6667px;line-height:1.25;font-family:'Avenir Next LT Pro';-inkscape-font-specification:'Avenir Next LT Pro Semi-Bold';fill:#000000"
           d="m 824.40205,-101.33333 c 0.0533,-0.71467 0.66133,-1.23734 1.41867,-1.23734 0.832,0 1.20534,0.576 1.20534,1.23734 z m 3.90401,0.576 c 0,-1.84534 -1.04534,-2.77334 -2.47468,-2.77334 -1.54667,0 -2.70934,1.088 -2.70934,2.74134 0,1.664005 1.17334,2.677342 2.75201,2.677342 0.97067,0 1.69601,-0.341335 2.19734,-1.024003 l -0.85333,-0.682669 c -0.28801,0.405334 -0.71467,0.661335 -1.35468,0.661335 -0.74666,0 -1.408,-0.533335 -1.46133,-1.258675 h 3.89334 c 0.0107,-0.11733 0.0107,-0.224 0.0107,-0.34133 z" />
        <path
           id="path71440"
           style="font-style:normal;font-variant:normal;font-weight:600;font-stretch:normal;font-size:10.6667px;line-height:1.25;font-family:'Avenir Next LT Pro';-inkscape-font-specification:'Avenir Next LT Pro Semi-Bold';fill:#000000"
           d="m 833.18308,-102.752 c -0.41601,-0.52267 -1.18401,-0.77867 -1.92001,-0.77867 -1.01334,0 -2.03734,0.49067 -2.03734,1.632 0,0.96001 0.75734,1.26934 1.51467,1.45067 0.77867,0.18134 1.17334,0.30934 1.17334,0.736007 0,0.458668 -0.448,0.608002 -0.82134,0.608002 -0.55467,0 -1.03467,-0.277335 -1.312,-0.640002 l -0.84267,0.789335 c 0.49067,0.544002 1.312,0.84267 2.10134,0.84267 1.12,0 2.13334,-0.458668 2.13334,-1.706672 0,-1.00267 -0.896,-1.344 -1.65334,-1.52534 -0.71467,-0.17067 -1.10934,-0.27733 -1.10934,-0.672 0,-0.40534 0.416,-0.55467 0.82134,-0.55467 0.46933,0 0.896,0.256 1.12,0.55467 z" />
        <path
           id="path71442"
           style="font-style:normal;font-variant:normal;font-weight:600;font-stretch:normal;font-size:10.6667px;line-height:1.25;font-family:'Avenir Next LT Pro';-inkscape-font-specification:'Avenir Next LT Pro Semi-Bold';fill:#000000"
           d="m 835.25625,-101.33333 c 0.0533,-0.71467 0.66133,-1.23734 1.41867,-1.23734 0.832,0 1.20534,0.576 1.20534,1.23734 z m 3.90401,0.576 c 0,-1.84534 -1.04534,-2.77334 -2.47467,-2.77334 -1.54668,0 -2.70935,1.088 -2.70935,2.74134 0,1.664005 1.17334,2.677342 2.75201,2.677342 0.97067,0 1.69601,-0.341335 2.19734,-1.024003 l -0.85333,-0.682669 c -0.288,0.405334 -0.71467,0.661335 -1.35467,0.661335 -0.74667,0 -1.40801,-0.533335 -1.46134,-1.258675 h 3.89334 c 0.0107,-0.11733 0.0107,-0.224 0.0107,-0.34133 z" />
        <path
           id="path71444"
           style="font-style:normal;font-variant:normal;font-weight:600;font-stretch:normal;font-size:10.6667px;line-height:1.25;font-family:'Avenir Next LT Pro';-inkscape-font-specification:'Avenir Next LT Pro Semi-Bold';fill:#000000"
           d="m 840.55993,-102.35733 v 2.389336 c 0,0.981336 0.30934,1.813339 1.66401,1.813339 0.288,0 0.62933,-0.05333 0.85333,-0.138667 l -0.0427,-1.00267 c -0.14934,0.07467 -0.37334,0.106667 -0.54401,0.106667 -0.56533,0 -0.672,-0.330668 -0.672,-0.789336 v -2.378669 h 1.28001 v -1.02401 h -1.28001 v -1.48267 h -1.25867 v 1.48267 h -0.896 v 1.02401 z" />
      </g>
    </g>
  </g>
</svg>
