<?xml version="1.0" encoding="UTF-8" standalone="no"?>
<svg
   xmlns:dc="http://purl.org/dc/elements/1.1/"
   xmlns:cc="http://creativecommons.org/ns#"
   xmlns:rdf="http://www.w3.org/1999/02/22-rdf-syntax-ns#"
   xmlns:svg="http://www.w3.org/2000/svg"
   xmlns="http://www.w3.org/2000/svg"
   style="enable-background:new"
   version="1.1"
   id="svg2"
   height="213"
   width="773">
  <defs
     id="defs4" />
  <metadata
     id="metadata7">
    <rdf:RDF>
      <cc:Work
         rdf:about="">
        <dc:format>image/svg+xml</dc:format>
        <dc:type
           rdf:resource="http://purl.org/dc/dcmitype/StillImage" />
        <dc:title />
        <cc:license
           rdf:resource="http://creativecommons.org/licenses/by-sa/4.0/" />
      </cc:Work>
      <cc:License
         rdf:about="http://creativecommons.org/licenses/by-sa/4.0/">
        <cc:permits
           rdf:resource="http://creativecommons.org/ns#Reproduction" />
        <cc:permits
           rdf:resource="http://creativecommons.org/ns#Distribution" />
        <cc:requires
           rdf:resource="http://creativecommons.org/ns#Notice" />
        <cc:requires
           rdf:resource="http://creativecommons.org/ns#Attribution" />
        <cc:permits
           rdf:resource="http://creativecommons.org/ns#DerivativeWorks" />
        <cc:requires
           rdf:resource="http://creativecommons.org/ns#ShareAlike" />
      </cc:License>
    </rdf:RDF>
  </metadata>
  <g
     style="display:inline"
     id="layer6">
    <g
       id="export-button-rms-window-over"
       transform="translate(20,152)">
      <path
         d="m 810.5,-111.5 h 39 c 5.54,0 10,4.237 10,9.5 0,5.263001 -4.46,9.500002 -10,9.500002 h -39 c -5.54,0 -10,-4.237001 -10,-9.500002 0,-5.263 4.46,-9.5 10,-9.5 z"
         style="color:#000000;clip-rule:nonzero;display:inline;overflow:visible;visibility:visible;isolation:auto;mix-blend-mode:normal;color-interpolation:sRGB;color-interpolation-filters:linearRGB;solid-color:#000000;solid-opacity:1;fill:#a0a000;fill-opacity:1;fill-rule:nonzero;stroke:#000000;stroke-width:0.999999;stroke-linecap:round;stroke-linejoin:round;stroke-miterlimit:4;stroke-dasharray:none;stroke-dashoffset:0;stroke-opacity:1;marker:none;color-rendering:auto;image-rendering:auto;shape-rendering:auto;text-rendering:auto;enable-background:accumulate"
         id="rect1949" />
      <g
         style="font-style:normal;font-variant:normal;font-weight:600;font-stretch:normal;font-size:10.6667px;line-height:0%;font-family:sans-serif;-inkscape-font-specification:'Avenir Next LT Pro Semi-Bold';text-align:center;letter-spacing:0px;word-spacing:0px;text-anchor:middle;display:inline;fill:#000000;fill-opacity:1;stroke:none;enable-background:new"
         id="text1953"
         aria-label="RMS">
        <path
           id="path1267"
           style="font-style:normal;font-variant:normal;font-weight:600;font-stretch:normal;font-size:10.6667px;line-height:1.25;font-family:'Avenir Next LT Pro';-inkscape-font-specification:'Avenir Next LT Pro Semi-Bold';fill:#000000"
           d="m 819.12123,-98.261322 h 1.34401 v -3.200008 h 0.98133 l 1.74934,3.200008 h 1.62134 l -2.01601,-3.349348 c 1.05601,-0.23466 1.72801,-0.94933 1.72801,-2.03734 0,-1.6 -1.36534,-2.16534 -2.78401,-2.16534 h -2.62401 z m 1.34401,-4.298678 v -2.12268 h 1.216 c 0.69334,0 1.50401,0.20267 1.50401,1.02401 0,0.91733 -0.86401,1.09867 -1.62134,1.09867 z" />
        <path
           id="path1269"
           style="font-style:normal;font-variant:normal;font-weight:600;font-stretch:normal;font-size:10.6667px;line-height:1.25;font-family:'Avenir Next LT Pro';-inkscape-font-specification:'Avenir Next LT Pro Semi-Bold';fill:#000000"
           d="m 825.82959,-98.261322 h 1.28 v -6.069348 h 0.0213 l 2.26135,6.069348 h 0.93866 l 2.29335,-6.069348 h 0.0213 v 6.069348 h 1.33334 v -7.552028 h -2.11201 l -1.94134,5.36535 h -0.032 l -1.96267,-5.36535 h -2.10134 z" />
        <path
           id="path1271"
           style="font-style:normal;font-variant:normal;font-weight:600;font-stretch:normal;font-size:10.6667px;line-height:1.25;font-family:'Avenir Next LT Pro';-inkscape-font-specification:'Avenir Next LT Pro Semi-Bold';fill:#000000"
           d="m 840.36747,-105.19468 c -0.57601,-0.544 -1.44001,-0.81067 -2.19734,-0.81067 -1.36534,0 -2.76268,0.68267 -2.76268,2.21868 0,1.408 0.992,1.856 1.90934,2.144 0.94934,0.29867 1.73867,0.52267 1.73867,1.31201 0,0.810667 -0.736,1.120002 -1.36534,1.120002 -0.59733,0 -1.28,-0.320001 -1.65333,-0.832002 l -0.96001,0.896002 c 0.59734,0.704002 1.61067,1.077337 2.59201,1.077337 1.48267,0 2.75201,-0.789336 2.75201,-2.410679 0,-1.48267 -1.23734,-1.90934 -2.20801,-2.208 -0.85333,-0.26667 -1.44,-0.46934 -1.44,-1.16267 0,-0.73601 0.71467,-1.03467 1.33334,-1.03467 0.53333,0 1.09867,0.27733 1.38667,0.65067 z" />
      </g>
    </g>
  </g>
</svg>
