<?xml version="1.0" encoding="UTF-8" standalone="no"?>
<svg
   xmlns:dc="http://purl.org/dc/elements/1.1/"
   xmlns:cc="http://creativecommons.org/ns#"
   xmlns:rdf="http://www.w3.org/1999/02/22-rdf-syntax-ns#"
   xmlns:svg="http://www.w3.org/2000/svg"
   xmlns="http://www.w3.org/2000/svg"
   style="enable-background:new"
   version="1.1"
   id="svg2"
   height="224"
   width="792">
  <defs
     id="defs4" />
  <metadata
     id="metadata7">
    <rdf:RDF>
      <cc:Work
         rdf:about="">
        <dc:format>image/svg+xml</dc:format>
        <dc:type
           rdf:resource="http://purl.org/dc/dcmitype/StillImage" />
        <dc:title />
        <cc:license
           rdf:resource="http://creativecommons.org/licenses/by-sa/4.0/" />
      </cc:Work>
      <cc:License
         rdf:about="http://creativecommons.org/licenses/by-sa/4.0/">
        <cc:permits
           rdf:resource="http://creativecommons.org/ns#Reproduction" />
        <cc:permits
           rdf:resource="http://creativecommons.org/ns#Distribution" />
        <cc:requires
           rdf:resource="http://creativecommons.org/ns#Notice" />
        <cc:requires
           rdf:resource="http://creativecommons.org/ns#Attribution" />
        <cc:permits
           rdf:resource="http://creativecommons.org/ns#DerivativeWorks" />
        <cc:requires
           rdf:resource="http://creativecommons.org/ns#ShareAlike" />
      </cc:License>
    </rdf:RDF>
  </metadata>
  <g
     style="display:inline"
     id="layer6">
    <g
       id="export-button-sidechain-external-over"
       transform="translate(180,172)">
      <path
         id="rect2168"
         style="color:#000000;clip-rule:nonzero;display:inline;overflow:visible;visibility:visible;isolation:auto;mix-blend-mode:normal;color-interpolation:sRGB;color-interpolation-filters:linearRGB;solid-color:#000000;solid-opacity:1;fill:#a00000;fill-opacity:1;fill-rule:nonzero;stroke:#000000;stroke-width:0.999999;stroke-linecap:round;stroke-linejoin:round;stroke-miterlimit:4;stroke-dasharray:none;stroke-dashoffset:0;stroke-opacity:1;marker:none;color-rendering:auto;image-rendering:auto;shape-rendering:auto;text-rendering:auto;enable-background:accumulate"
         d="m 810.5,-111.5 h 39 c 5.54,0 10,4.237 10,9.5 0,5.263001 -4.46,9.500002 -10,9.500002 h -39 c -5.54,0 -10,-4.237001 -10,-9.500002 0,-5.263 4.46,-9.5 10,-9.5 z" />
      <g
         aria-label="External"
         id="text2172"
         style="font-style:normal;font-variant:normal;font-weight:600;font-stretch:normal;font-size:10.6667px;line-height:0%;font-family:sans-serif;-inkscape-font-specification:'Avenir Next LT Pro Semi-Bold';text-align:center;letter-spacing:0px;word-spacing:0px;text-anchor:middle;display:inline;fill:#000000;fill-opacity:1;stroke:none;enable-background:new">
        <path
           d="m 810.40843,-98.261322 h 5.19468 v -1.19467 h -3.85068 v -2.133338 h 3.46668 V -102.72 h -3.46668 v -1.92001 h 3.65868 v -1.17334 h -5.00268 z"
           style="font-style:normal;font-variant:normal;font-weight:600;font-stretch:normal;font-size:10.6667px;line-height:1.25;font-family:'Avenir Next LT Pro';-inkscape-font-specification:'Avenir Next LT Pro Semi-Bold';fill:#000000"
           id="path95562" />
        <path
           d="m 816.07243,-98.261322 h 1.51467 l 1.34401,-1.866668 1.33333,1.866668 h 1.55734 l -2.09067,-2.720008 1.83467,-2.40001 h -1.472 l -1.14134,1.58934 -1.10934,-1.58934 h -1.536 l 1.84534,2.40001 z"
           style="font-style:normal;font-variant:normal;font-weight:600;font-stretch:normal;font-size:10.6667px;line-height:1.25;font-family:'Avenir Next LT Pro';-inkscape-font-specification:'Avenir Next LT Pro Semi-Bold';fill:#000000"
           id="path95564" />
        <path
           d="m 822.7391,-102.35733 v 2.389336 c 0,0.981336 0.30934,1.813339 1.66401,1.813339 0.288,0 0.62933,-0.05333 0.85334,-0.138667 l -0.0427,-1.00267 c -0.14934,0.07467 -0.37334,0.106667 -0.544,0.106667 -0.56534,0 -0.67201,-0.330668 -0.67201,-0.789336 v -2.378669 h 1.28001 v -1.02401 h -1.28001 v -1.48267 h -1.25867 v 1.48267 h -0.896 v 1.02401 z"
           style="font-style:normal;font-variant:normal;font-weight:600;font-stretch:normal;font-size:10.6667px;line-height:1.25;font-family:'Avenir Next LT Pro';-inkscape-font-specification:'Avenir Next LT Pro Semi-Bold';fill:#000000"
           id="path95566" />
        <path
           d="m 827.1871,-101.33333 c 0.0533,-0.71467 0.66133,-1.23734 1.41867,-1.23734 0.832,0 1.20534,0.576 1.20534,1.23734 z m 3.90401,0.576 c 0,-1.84534 -1.04534,-2.77334 -2.47467,-2.77334 -1.54667,0 -2.70934,1.088 -2.70934,2.74134 0,1.664005 1.17333,2.677342 2.752,2.677342 0.97067,0 1.69601,-0.341335 2.19734,-1.024003 l -0.85333,-0.682669 c -0.288,0.405334 -0.71467,0.661335 -1.35467,0.661335 -0.74667,0 -1.40801,-0.533335 -1.46134,-1.258675 h 3.89334 c 0.0107,-0.11733 0.0107,-0.224 0.0107,-0.34133 z"
           style="font-style:normal;font-variant:normal;font-weight:600;font-stretch:normal;font-size:10.6667px;line-height:1.25;font-family:'Avenir Next LT Pro';-inkscape-font-specification:'Avenir Next LT Pro Semi-Bold';fill:#000000"
           id="path95568" />
        <path
           d="m 832.32844,-98.261322 h 1.28001 v -2.741338 c 0,-0.37334 0.224,-1.37601 1.376,-1.37601 0.11733,0 0.224,0.0107 0.39467,0.0533 v -1.17334 c -0.0853,-0.0213 -0.21334,-0.032 -0.30934,-0.032 -0.672,0 -1.216,0.416 -1.49333,1.00267 h -0.0213 v -0.85334 h -1.22667 z"
           style="font-style:normal;font-variant:normal;font-weight:600;font-stretch:normal;font-size:10.6667px;line-height:1.25;font-family:'Avenir Next LT Pro';-inkscape-font-specification:'Avenir Next LT Pro Semi-Bold';fill:#000000"
           id="path95570" />
        <path
           d="m 836.21111,-98.261322 h 1.28 v -2.816008 c 0,-0.68267 0.384,-1.38667 1.19467,-1.38667 0.82134,0 0.96,0.75733 0.96,1.36534 v 2.837338 h 1.28001 v -3.200008 c 0,-1.04534 -0.55467,-2.06934 -1.88801,-2.06934 -0.75733,0 -1.36534,0.45867 -1.58934,0.97067 h -0.0213 v -0.82134 h -1.216 z"
           style="font-style:normal;font-variant:normal;font-weight:600;font-stretch:normal;font-size:10.6667px;line-height:1.25;font-family:'Avenir Next LT Pro';-inkscape-font-specification:'Avenir Next LT Pro Semi-Bold';fill:#000000"
           id="path95572" />
        <path
           d="m 845.59779,-98.261322 h 1.19467 V -101.376 c 0,-1.024 -0.448,-2.15467 -2.28267,-2.15467 -0.77867,0 -1.58934,0.27733 -2.16534,0.81067 l 0.66133,0.77867 c 0.33067,-0.33067 0.85334,-0.58667 1.39734,-0.58667 0.64,0 1.17334,0.30933 1.17334,0.93867 v 0.128 c -1.60001,0 -3.52001,0.21333 -3.52001,1.73867 0,1.19467 1.09867,1.589338 1.92,1.589338 0.72534,0 1.33334,-0.330667 1.58934,-0.778669 h 0.032 z m -0.0213,-2.154678 c 0,0.810674 -0.46934,1.312009 -1.34401,1.312009 -0.43733,0 -0.896,-0.149334 -0.896,-0.640002 0,-0.757337 1.14134,-0.853337 1.95201,-0.853337 h 0.288 z"
           style="font-style:normal;font-variant:normal;font-weight:600;font-stretch:normal;font-size:10.6667px;line-height:1.25;font-family:'Avenir Next LT Pro';-inkscape-font-specification:'Avenir Next LT Pro Semi-Bold';fill:#000000"
           id="path95574" />
        <path
           d="m 848.30712,-98.261322 h 1.28001 v -8.064028 h -1.28001 z"
           style="font-style:normal;font-variant:normal;font-weight:600;font-stretch:normal;font-size:10.6667px;line-height:1.25;font-family:'Avenir Next LT Pro';-inkscape-font-specification:'Avenir Next LT Pro Semi-Bold';fill:#000000"
           id="path95576" />
      </g>
    </g>
  </g>
</svg>
