<?xml version="1.0" encoding="UTF-8" standalone="no"?>
<svg
   xmlns:dc="http://purl.org/dc/elements/1.1/"
   xmlns:cc="http://creativecommons.org/ns#"
   xmlns:rdf="http://www.w3.org/1999/02/22-rdf-syntax-ns#"
   xmlns:svg="http://www.w3.org/2000/svg"
   xmlns="http://www.w3.org/2000/svg"
   style="enable-background:new"
   version="1.1"
   id="svg2"
   height="224"
   width="792">
  <defs
     id="defs4" />
  <metadata
     id="metadata7">
    <rdf:RDF>
      <cc:Work
         rdf:about="">
        <dc:format>image/svg+xml</dc:format>
        <dc:type
           rdf:resource="http://purl.org/dc/dcmitype/StillImage" />
        <dc:title />
        <cc:license
           rdf:resource="http://creativecommons.org/licenses/by-sa/4.0/" />
      </cc:Work>
      <cc:License
         rdf:about="http://creativecommons.org/licenses/by-sa/4.0/">
        <cc:permits
           rdf:resource="http://creativecommons.org/ns#Reproduction" />
        <cc:permits
           rdf:resource="http://creativecommons.org/ns#Distribution" />
        <cc:requires
           rdf:resource="http://creativecommons.org/ns#Notice" />
        <cc:requires
           rdf:resource="http://creativecommons.org/ns#Attribution" />
        <cc:permits
           rdf:resource="http://creativecommons.org/ns#DerivativeWorks" />
        <cc:requires
           rdf:resource="http://creativecommons.org/ns#ShareAlike" />
      </cc:License>
    </rdf:RDF>
  </metadata>
  <g
     style="display:inline"
     id="layer6">
    <g
       id="export-button-skin-on"
       transform="translate(-212,297)">
      <path
         id="rect2208"
         style="color:#000000;clip-rule:nonzero;display:inline;overflow:visible;visibility:visible;isolation:auto;mix-blend-mode:normal;color-interpolation:sRGB;color-interpolation-filters:linearRGB;solid-color:#000000;solid-opacity:1;fill:#ffff00;fill-opacity:1;fill-rule:nonzero;stroke:#000000;stroke-width:0.999999;stroke-linecap:round;stroke-linejoin:round;stroke-miterlimit:4;stroke-dasharray:none;stroke-dashoffset:0;stroke-opacity:1;marker:none;color-rendering:auto;image-rendering:auto;shape-rendering:auto;text-rendering:auto;enable-background:accumulate"
         d="m 810.5,-111.5 h 39 c 5.54,0 10,4.237 10,9.5 0,5.263001 -4.46,9.500002 -10,9.500002 h -39 c -5.54,0 -10,-4.237001 -10,-9.500002 0,-5.263 4.46,-9.5 10,-9.5 z" />
      <g
         aria-label="Skin"
         id="text2212"
         style="font-style:normal;font-variant:normal;font-weight:600;font-stretch:normal;font-size:10.6667px;line-height:0%;font-family:sans-serif;-inkscape-font-specification:'Avenir Next LT Pro Semi-Bold';text-align:center;letter-spacing:0px;word-spacing:0px;text-anchor:middle;display:inline;fill:#000000;fill-opacity:1;stroke:none;enable-background:new">
        <path
           d="m 825.29616,-105.19468 c -0.576,-0.544 -1.44001,-0.81067 -2.19734,-0.81067 -1.36534,0 -2.76268,0.68267 -2.76268,2.21868 0,1.408 0.99201,1.856 1.90934,2.144 0.94934,0.29867 1.73867,0.52267 1.73867,1.31201 0,0.810667 -0.736,1.120002 -1.36533,1.120002 -0.59734,0 -1.28001,-0.320001 -1.65334,-0.832002 l -0.96,0.896002 c 0.59733,0.704002 1.61067,1.077337 2.592,1.077337 1.48267,0 2.75201,-0.789336 2.75201,-2.410679 0,-1.48267 -1.23734,-1.90934 -2.208,-2.208 -0.85334,-0.26667 -1.44001,-0.46934 -1.44001,-1.16267 0,-0.73601 0.71467,-1.03467 1.33334,-1.03467 0.53333,0 1.09867,0.27733 1.38667,0.65067 z"
           style="font-style:normal;font-variant:normal;font-weight:600;font-stretch:normal;font-size:10.6667px;line-height:1.25;font-family:'Avenir Next LT Pro';-inkscape-font-specification:'Avenir Next LT Pro Semi-Bold';fill:#000000"
           id="path103876" />
        <path
           d="m 826.65082,-98.261322 h 1.28001 v -2.624008 h 0.032 l 2.02667,2.624008 h 1.69601 l -2.35735,-2.805338 2.21868,-2.31468 h -1.64267 l -1.94134,2.15468 h -0.032 v -5.09869 h -1.28001 z"
           style="font-style:normal;font-variant:normal;font-weight:600;font-stretch:normal;font-size:10.6667px;line-height:1.25;font-family:'Avenir Next LT Pro';-inkscape-font-specification:'Avenir Next LT Pro Semi-Bold';fill:#000000"
           id="path103878" />
        <path
           d="m 832.44283,-98.261322 h 1.28001 v -5.120018 h -1.28001 z m -0.18133,-6.858688 c 0,0.40533 0.34133,0.768 0.81067,0.768 0.46933,0 0.832,-0.33067 0.832,-0.768 0,-0.43734 -0.36267,-0.768 -0.832,-0.768 -0.46934,0 -0.81067,0.36267 -0.81067,0.768 z"
           style="font-style:normal;font-variant:normal;font-weight:600;font-stretch:normal;font-size:10.6667px;line-height:1.25;font-family:'Avenir Next LT Pro';-inkscape-font-specification:'Avenir Next LT Pro Semi-Bold';fill:#000000"
           id="path103880" />
        <path
           d="m 835.28017,-98.261322 h 1.28001 v -2.816008 c 0,-0.68267 0.384,-1.38667 1.19467,-1.38667 0.82133,0 0.96,0.75733 0.96,1.36534 v 2.837338 h 1.28 v -3.200008 c 0,-1.04534 -0.55466,-2.06934 -1.888,-2.06934 -0.75734,0 -1.36534,0.45867 -1.58934,0.97067 h -0.0213 v -0.82134 h -1.21601 z"
           style="font-style:normal;font-variant:normal;font-weight:600;font-stretch:normal;font-size:10.6667px;line-height:1.25;font-family:'Avenir Next LT Pro';-inkscape-font-specification:'Avenir Next LT Pro Semi-Bold';fill:#000000"
           id="path103882" />
      </g>
    </g>
  </g>
</svg>
