<?xml version="1.0" encoding="UTF-8"?>
<!-- https://pixabay.com/, Clker-Free-Vector-Images -->
<svg viewBox="0 0 640 480" xmlns="http://www.w3.org/2000/svg">
 <path d="m295.8 105.36c-52.128 6.8446-92.71 43.071-114.03 89.576-3.117 6.799-7.544 13.678-9.288 21-6.169 25.899-3.11 51.061 5.149 76 4.172 12.599 8.646 25.294 16.765 36 18.661 24.607 41.772 39.984 70.402 50.218 18.75 6.702 39.13 8.936 59 6.496 13.438-1.651 28.411-3.008 41-8.168 49.574-20.318 82.046-67.837 85.91-120.55 5.794-79.042-74.987-161.07-154.91-150.58z" fill="#007f3f"/>
 <path d="m299.71 110.43c-20.774 2.9258-42.547 10.003-59.91 22.244-29.267 20.633-51.468 48.199-60.443 83.267-13.133 51.319 10.618 110.9 54.447 139.93 27.699 18.349 64.231 25.858 96.996 21.885 73.671-8.935 121.88-80.316 111.69-151.82-8.684-60.948-79.091-124.48-142.78-115.51z" fill="#5fbf00"/>
 <path d="m307.8 133.37c-21.154 2.526-39.562 5.21-58 17.216-45.007 29.308-65.638 89.207-44.126 139.19 10.354 24.055 29.072 43.597 51.411 57.05 22.689 13.664 51.391 13.837 76.715 10.953 16.382-1.865 33.768-13.285 46.13-23.561 23.512-19.545 39.655-45.535 42.586-76.272 5.858-61.428-48.602-132.47-114.72-124.57z" fill="#d4ffaa"/>
 <g fill="#5fbf00">
  <path d="m315.8 139.68c-9.7201 0.205-23.966-1.47-29.951 8.36-2.829 4.645 0.37399 9.337 1.651 13.895 3.291 11.746 5.654 23.512 10.052 35 3.185 8.322 4.558 16.889 8.612 25 1.047 2.095 2.896 6.793 5.749 6.793 5.8281 0 12.351-21.017 14.5-25.793 5.497-12.22 9.242-25.251 13.006-38 1.448-4.904 4.637-10.695 2.484-15.892-3.256-7.858-18.813-9.516-26.103-9.363z" opacity=".6"/>
  <path d="m265.8 157.96c-12.806-0.798-29.127 18.366-34.714 27.983-2.079 3.581-7.025 9.533-4.923 13.819 2.441 4.979 10.097 8.539 14.638 11.32 14.24 8.72 38.74 23.216 55.955 22.798 8.091-0.19701 2.577-14.039 0.87201-17.937-6.275-14.347-13.645-28.629-19.541-43-2.382-5.806-4.354-14.489-12.287-14.983z" opacity=".6"/>
  <path d="m360.1 161.93c-5.014 2.688-7.295 10.327-9.972 15.012-7.199 12.6-14.78 24.845-20.833 38-2.137 4.645-7.455 12.404-5.108 17.851 2.086 4.841 10.158 1.525 13.612 0.079987 11.472-4.801 21.161-12.242 32-18.14 8.382-4.561 20.149-10.328 23.852-19.791 5.421-13.854-19.155-40.729-33.551-33.012z" opacity=".6"/>
  <path d="m400.8 217.23c-3.353-0.078003-6.666 2.77-10 3.384-15.305 2.819-30.611 9.782-45 15.94-3.759 1.609-14.552 5.033-14.379 10.353 0.17398 5.335 11.571 7.962 15.379 9.626 16.516 7.219 34.726 16.619 53.075 16.341 15.326-0.23099 15.88-34.652 12.336-44.931-1.399-4.058-6.724-10.604-11.411-10.713z" opacity=".6"/>
  <path d="m219.82 218.51c-9.355 2.719-10.732 15.407-10.875 23.427-0.31601 17.695 0.63901 36.686 23.86 30.461 14.673-3.933 30.788-9.735 44-17.165 3.764-2.117 11.936-4.604 13.029-9.424 1.514-6.67-10.85-9.067-15.029-11.141-9.49-4.711-19.211-7.011-29-10.718-7.546-2.857-17.602-7.875-25.985-5.44z" opacity=".6"/>
  <path d="m292.8 255.79c-5.644 0.71301-10.986 5.082-16 7.47-14.697 7-39.235 16.513-47.308 31.719-7.93 14.935 14.365 38.053 30.222 36.436 6.36-0.64902 10.888-10.56 13.359-15.476 7.61-15.142 16.216-29.736 23.636-45 2.303-4.737 5.394-16.323-3.909-15.149z" opacity=".6"/>
  <path d="m325.56 259.97c-5.392 4.499 5.733 25.987 8.134 30.971 5.125 10.637 9.628 21.419 14.829 32 2.1 4.273 3.694 10.194 9.319 10.812 7.257 0.79599 14.555-6.923 19.676-11.179 6.2979-5.233 23.364-22.322 19.542-31.529-4.209-10.141-25.087-16.322-34.257-20.768-8.919-4.325-17.31-8.046-27-10.001-2.845-0.57404-7.649-2.471-10.243-0.30603z" opacity=".6"/>
  <path d="m308.86 266.08c-8.38 3.594-12.086 24.141-14.781 31.864-3.787 10.853-16.079 30.002-12.689 41.907 1.45 5.09 7.918 6.592 12.412 7.712 11.744 2.927 29.508 4.959 40.895-0.46201 7.178-3.418 5.702-11.07 4.039-17.161-4.305-15.769-10.064-33.066-16.759-47.996-2.092-4.665-5.197-19.261-13.117-15.864z" opacity=".6"/>
 </g>
</svg>
